<svg width="531" height="192" viewBox="0 0 531 192" fill="none" xmlns="http://www.w3.org/2000/svg">
<g clip-path="url(#clip0_1_2)">
<path d="M444.788 167.136C443.413 174.541 435.892 179.356 427.99 177.888C420.088 176.421 414.797 169.228 416.172 161.823C417.547 154.417 425.067 149.603 432.969 151.07C440.872 152.538 446.163 159.73 444.788 167.136Z" fill="#FF2222"/>
<path fill-rule="evenodd" clip-rule="evenodd" d="M518.325 93.0526C518.325 93.0526 465.231 14.0329 458.965 12.8694C456.772 12.4623 444.119 19.9269 428.595 29.804L429.29 26.0603C429.673 24.0002 428.159 21.9915 425.91 21.5739C423.66 21.1562 421.527 22.4877 421.144 24.5479L419.026 35.9574C391.884 53.5721 377.236 66.8574 377.236 66.8574C377.236 66.8574 382.954 66.1384 407.963 61.5132C409.799 54.8042 414.756 48.7833 420.842 43.6849C422.757 42.0813 424.783 40.569 426.859 39.1552C439.57 30.4987 454.144 25.5374 456.348 25.9465C460.09 26.6413 492.849 49.8389 489.713 76.952C511.112 90.1703 518.325 93.0526 518.325 93.0526Z" fill="#7B0000"/>
<path fill-rule="evenodd" clip-rule="evenodd" d="M470.08 77.5308C467.948 89.0123 440.707 117.323 440.707 117.323L430.536 128.59C430.536 128.59 424.209 134.846 430.57 140.534C436.93 146.222 443.63 140.098 443.63 140.098C443.63 140.098 484.187 107.124 489.39 79.0998C489.523 78.3814 489.631 77.6653 489.713 76.952C492.849 49.8389 460.09 26.6413 456.348 25.9465C454.144 25.5374 439.57 30.4987 426.859 39.1552C424.783 40.569 422.757 42.0813 420.842 43.6849C414.756 48.7833 409.799 54.8042 407.963 61.5132C407.75 62.2952 407.578 63.0865 407.452 63.8869C406.077 72.6256 406.457 78.2206 410.059 86.5402C411.779 90.5139 416.574 93.3209 421.253 92.2729C425.909 91.2302 427.811 86.9128 426.762 82.883C425.393 77.6202 424.43 72.3115 425.014 69.1637C425.763 65.129 427.708 61.5941 430.456 58.8062C435.528 53.6605 443.335 51.0595 451.407 52.5581C459.433 54.0483 465.76 59.2278 468.669 65.798C470.271 69.4152 470.837 73.454 470.08 77.5308ZM457.908 34.8672L452.705 33.9012C449.832 33.3677 447.106 35.0697 446.617 37.7028L445.843 41.8745C445.354 44.5076 447.287 47.0746 450.16 47.6081L455.363 48.5741C458.237 49.1076 460.963 47.4056 461.451 44.7725L462.226 40.6008C462.715 37.9677 460.782 35.4007 457.908 34.8672Z" fill="#FF2222"/>
<path d="M377.236 66.8574C377.611 69.834 377.611 69.8339 377.611 69.8339M377.236 66.8574C375.221 64.6353 375.221 64.635 375.222 64.6346L375.223 64.6337L375.226 64.6308L375.236 64.6215L375.273 64.5884C375.305 64.5599 375.35 64.5187 375.41 64.4651C375.531 64.3579 375.708 64.201 375.941 63.9965C376.407 63.5875 377.099 62.9882 378.011 62.2162C379.836 60.6721 382.545 58.4369 386.104 55.6507C393.032 50.2267 403.183 42.713 416.311 34.1448L418.195 24.0003C418.924 20.0723 422.828 17.9505 426.457 18.6243C429.241 19.1412 431.586 21.2518 432.198 23.98C437.917 20.3965 443.099 17.2527 447.299 14.8706C450.015 13.3307 452.374 12.078 454.227 11.228C455.148 10.8054 456.01 10.4514 456.767 10.2134C457.36 10.0267 458.437 9.72017 459.513 9.91984C460.28 10.0623 460.912 10.4218 461.314 10.682C461.765 10.9732 462.213 11.3298 462.642 11.7058C463.502 12.4595 464.482 13.4655 465.541 14.6383C467.669 16.9948 470.311 20.2473 473.256 24.053C479.156 31.6773 486.41 41.7064 493.445 51.6665C500.486 61.6337 507.328 71.5612 512.408 78.9948C514.949 82.7122 517.05 85.8073 518.516 87.9734C519.249 89.0565 519.823 89.9074 520.215 90.4878C520.41 90.7781 520.56 91.0007 520.661 91.1509L520.776 91.3213L520.805 91.3646L520.813 91.3757L520.815 91.3785M377.236 66.8574L377.611 69.8339M377.236 66.8574L375.221 64.6353C374.251 65.5147 373.964 66.9211 374.511 68.1105C375.057 69.2998 376.312 69.9972 377.611 69.8339M377.611 69.8339L377.612 69.8338L377.615 69.8335L377.621 69.8327L377.639 69.8303L377.703 69.8219C377.758 69.8146 377.838 69.8038 377.946 69.7886C378.163 69.7582 378.495 69.7105 378.968 69.6393C379.912 69.4969 381.424 69.26 383.714 68.8791C387.744 68.2085 394.194 67.0902 404.22 65.2529C403.715 68.993 403.551 72.331 403.906 75.686C404.319 79.5947 405.418 83.3729 407.306 87.7322C409.558 92.9332 415.726 96.5851 421.909 95.2004C428.507 93.7226 431.064 87.501 429.666 82.1275C428.997 79.5563 428.443 77.0325 428.126 74.807C427.8 72.5206 427.762 70.7964 427.964 69.7113C428.598 66.2974 430.242 63.2971 432.593 60.9121C436.947 56.4951 443.74 54.186 450.859 55.5077C457.938 56.822 463.428 61.3714 465.926 67.0127C467.297 70.1079 467.771 73.5339 467.13 76.9832C466.721 79.1888 464.949 82.6586 462.097 86.9249C459.326 91.0708 455.794 95.5962 452.287 99.8148C448.787 104.025 445.348 107.886 442.781 110.697C441.499 112.102 440.436 113.242 439.696 114.029C439.326 114.423 439.036 114.728 438.84 114.934C438.742 115.037 438.667 115.115 438.618 115.167L438.562 115.225L438.549 115.239L438.546 115.243C438.524 115.266 438.501 115.289 438.48 115.313L428.352 126.534C428.334 126.552 428.313 126.573 428.291 126.597C428.222 126.669 428.133 126.766 428.026 126.886C427.815 127.126 427.534 127.464 427.225 127.886C426.619 128.716 425.853 129.943 425.333 131.449C424.808 132.966 424.504 134.853 424.95 136.905C425.402 138.987 426.571 140.983 428.57 142.77C432.739 146.499 437.204 146.367 440.431 145.296C441.99 144.778 443.269 144.048 444.149 143.462C444.593 143.165 444.95 142.896 445.203 142.693C445.33 142.592 445.432 142.506 445.508 142.441C445.534 142.419 445.557 142.399 445.577 142.381L445.652 142.319C445.734 142.252 445.852 142.154 446.006 142.026C446.314 141.77 446.762 141.394 447.332 140.907C448.471 139.933 450.099 138.515 452.066 136.728C455.997 133.156 461.297 128.094 466.768 122.137C472.234 116.187 477.91 109.301 482.566 102.079C486.765 95.5671 490.222 88.6479 491.879 81.7993C500.584 87.0976 506.64 90.4912 510.639 92.61C512.914 93.8154 514.526 94.61 515.584 95.109C516.113 95.3585 516.504 95.5345 516.77 95.6512C516.904 95.7096 517.006 95.7531 517.079 95.7837C517.116 95.799 517.145 95.8111 517.167 95.8201L517.195 95.8315L517.205 95.8355L517.209 95.8371L517.21 95.8378C517.211 95.8381 517.212 95.8384 518.325 93.0526M518.325 93.0526C520.815 91.3795 520.815 91.3791 520.815 91.3785M518.325 93.0526L520.815 91.3785M518.325 93.0526L517.212 95.8384C518.434 96.3267 519.831 95.9617 520.659 94.9382C521.486 93.9147 521.549 92.4707 520.815 91.3785M427.443 180.838C436.791 182.574 446.027 176.896 447.738 167.684C449.448 158.472 442.865 149.856 433.517 148.121C424.169 146.385 414.933 152.063 413.222 161.275C411.512 170.487 418.095 179.102 427.443 180.838ZM452.158 36.8508L457.361 37.8168C458.853 38.0938 459.419 39.2864 459.276 40.0532L458.502 44.2248C458.359 44.9916 457.403 45.9016 455.911 45.6245L450.708 44.6585C449.216 44.3814 448.65 43.1889 448.792 42.4221L449.567 38.2504C449.709 37.4836 450.665 36.5737 452.158 36.8508Z" stroke="#570000" stroke-width="6" stroke-linejoin="round"/>
<path d="M17.2 84.4L11.3247 85.6169L11.3261 85.6238L17.2 84.4ZM4.40001 22.6L10.2753 21.3831C10.2675 21.3454 10.2593 21.3078 10.2508 21.2703L4.40001 22.6ZM5.30001 18.7L0.800986 14.7303C0.75592 14.7814 0.711725 14.8332 0.668424 14.8858L5.30001 18.7ZM18.4 22.6L24.3267 21.6648C24.324 21.6478 24.3212 21.6307 24.3184 21.6136L18.4 22.6ZM26.7 75.2H32.7C32.7 74.8869 32.6755 74.5742 32.6267 74.2648L26.7 75.2ZM27 75.2L21.0682 74.2979C21.0228 74.5964 21 74.898 21 75.2H27ZM35 22.6L29.0816 21.6136C29.077 21.6417 29.0725 21.6698 29.0682 21.6979L35 22.6ZM54 22.6L59.9301 21.6868C59.9263 21.6624 59.9224 21.638 59.9184 21.6136L54 22.6ZM62.1 75.2H68.1C68.1 74.8943 68.0766 74.589 68.0301 74.2868L62.1 75.2ZM62.3 75.2L56.3733 74.2648C56.3245 74.5742 56.3 74.8869 56.3 75.2H62.3ZM70.6 22.6L64.6816 21.6136C64.6788 21.6307 64.676 21.6478 64.6733 21.6648L70.6 22.6ZM84.2 22.6L90.0753 23.8169C90.0852 23.7692 90.0945 23.7213 90.1032 23.6733L84.2 22.6ZM71.4 84.4L77.2739 85.6238L77.2753 85.6169L71.4 84.4ZM54.9 88.4L50.9138 92.8845C50.9538 92.92 50.9943 92.955 51.0352 92.9895L54.9 88.4ZM52.7 84.4L46.7733 85.3352C46.776 85.3523 46.7788 85.3694 46.7816 85.3864L52.7 84.4ZM44.4 31.8H38.4C38.4 32.1132 38.4245 32.4259 38.4733 32.7352L44.4 31.8ZM44.2 31.8L50.1267 32.7352C50.1755 32.4259 50.2 32.1132 50.2 31.8H44.2ZM35.9 84.4L41.8184 85.3864C41.8212 85.3694 41.824 85.3523 41.8267 85.3352L35.9 84.4ZM33.6 88.4L29.7352 83.8106C29.6943 83.845 29.6538 83.88 29.6138 83.9156L33.6 88.4ZM23.0753 83.1831L10.2753 21.3831L-1.47529 23.8169L11.3247 85.6169L23.0753 83.1831ZM10.2508 21.2703C10.2589 21.3059 10.2992 21.5366 10.2213 21.8742C10.1423 22.2167 9.99493 22.4374 9.93159 22.5143L0.668424 14.8858C-1.47885 17.4932 -2.18393 20.7039 -1.45079 23.9298L10.2508 21.2703ZM9.79903 22.6698C9.80824 22.6593 9.70639 22.7731 9.48001 22.8771C9.24909 22.9832 9.06068 23 9.00001 23V11C5.75276 11 2.90027 12.3511 0.800986 14.7303L9.79903 22.6698ZM9.00001 23H11.9V11H9.00001V23ZM11.9 23C11.9959 23 12.0568 23.0076 12.0889 23.0132C12.1054 23.016 12.1163 23.0186 12.1225 23.0203C12.1287 23.0219 12.1318 23.0231 12.1326 23.0234C12.1334 23.0236 12.1336 23.0238 12.1339 23.0239C12.1343 23.0241 12.1364 23.0251 12.1407 23.0277C12.1482 23.0323 12.1727 23.048 12.2138 23.0845L20.1862 14.1156C17.8429 12.0326 14.9748 11 11.9 11V23ZM12.2138 23.0845C12.3775 23.23 12.4379 23.3238 12.4816 23.5864L24.3184 21.6136C23.8288 18.6763 22.4225 16.1034 20.1862 14.1156L12.2138 23.0845ZM12.4733 23.5352L20.7733 76.1352L32.6267 74.2648L24.3267 21.6648L12.4733 23.5352ZM20.7 75.2C20.7 76.1582 20.9436 77.9789 22.4823 79.5176C24.0211 81.0564 25.8418 81.3 26.8 81.3V69.3C27.6916 69.3 29.4623 69.527 30.9677 71.0324C32.4731 72.5378 32.7 74.3085 32.7 75.2H20.7ZM26.8 81.3C27.1731 81.3 28.3462 81.2851 29.6333 80.6416C30.3617 80.2774 31.2685 79.6389 31.9798 78.572C32.7161 77.4675 33 76.2666 33 75.2H21C21 74.1668 21.2756 72.9951 21.9952 71.9156C22.6898 70.8737 23.5716 70.256 24.2667 69.9085C25.4872 69.2982 26.5602 69.3 26.8 69.3V81.3ZM32.9318 76.1022L40.9318 23.5022L29.0682 21.6979L21.0682 74.2979L32.9318 76.1022ZM40.9184 23.5864C40.9621 23.3238 41.0225 23.23 41.1862 23.0845L33.2138 14.1156C30.9775 16.1034 29.5712 18.6763 29.0816 21.6136L40.9184 23.5864ZM41.1862 23.0845C41.2273 23.048 41.2518 23.0323 41.2593 23.0277C41.2636 23.0251 41.2657 23.0241 41.2661 23.0239C41.2664 23.0238 41.2666 23.0236 41.2674 23.0234C41.2682 23.0231 41.2713 23.0219 41.2775 23.0203C41.2837 23.0186 41.2946 23.016 41.3111 23.0132C41.3432 23.0076 41.4041 23 41.5 23V11C38.4252 11 35.5571 12.0326 33.2138 14.1156L41.1862 23.0845ZM41.5 23H47.5V11H41.5V23ZM47.5 23C47.5959 23 47.6568 23.0076 47.6889 23.0132C47.7054 23.016 47.7163 23.0186 47.7225 23.0203C47.7287 23.0219 47.7318 23.0231 47.7326 23.0234C47.7334 23.0236 47.7336 23.0238 47.7339 23.0239C47.7343 23.0241 47.7364 23.0251 47.7407 23.0277C47.7482 23.0323 47.7727 23.048 47.8138 23.0845L55.7862 14.1156C53.4429 12.0326 50.5748 11 47.5 11V23ZM47.8138 23.0845C47.9775 23.23 48.0379 23.3238 48.0816 23.5864L59.9184 21.6136C59.4288 18.6763 58.0225 16.1034 55.7862 14.1156L47.8138 23.0845ZM48.0699 23.5132L56.1699 76.1132L68.0301 74.2868L59.9301 21.6868L48.0699 23.5132ZM56.1 75.2C56.1 76.1582 56.3436 77.9789 57.8823 79.5176C59.4211 81.0564 61.2418 81.3 62.2 81.3V69.3C63.0916 69.3 64.8623 69.527 66.3677 71.0324C67.8731 72.5378 68.1 74.3085 68.1 75.2H56.1ZM62.2 81.3C63.1582 81.3 64.9789 81.0564 66.5177 79.5176C68.0564 77.9789 68.3 76.1582 68.3 75.2H56.3C56.3 74.3085 56.5269 72.5378 58.0323 71.0324C59.5377 69.527 61.3084 69.3 62.2 69.3V81.3ZM68.2267 76.1352L76.5267 23.5352L64.6733 21.6648L56.3733 74.2648L68.2267 76.1352ZM76.5184 23.5864C76.5621 23.3238 76.6225 23.23 76.7862 23.0845L68.8138 14.1156C66.5775 16.1034 65.1712 18.6763 64.6816 21.6136L76.5184 23.5864ZM76.7862 23.0845C76.8273 23.048 76.8518 23.0323 76.8593 23.0277C76.8636 23.0251 76.8658 23.0241 76.8661 23.0239C76.8664 23.0238 76.8666 23.0236 76.8674 23.0234C76.8682 23.0231 76.8713 23.0219 76.8775 23.0203C76.8837 23.0186 76.8946 23.016 76.9111 23.0132C76.9432 23.0076 77.0041 23 77.1 23V11C74.0252 11 71.1571 12.0326 68.8138 14.1156L76.7862 23.0845ZM77.1 23H79.6V11H77.1V23ZM79.6 23C79.5415 23 79.3201 22.9837 79.038 22.8505C78.756 22.7174 78.6039 22.5574 78.5684 22.5143L87.8316 14.8858C85.7599 12.3701 82.8617 11 79.6 11V23ZM78.5684 22.5143C78.5293 22.4667 78.4096 22.2946 78.338 22.0153C78.2671 21.7386 78.2926 21.5496 78.2968 21.5267L90.1032 23.6733C90.6801 20.5005 89.9069 17.4058 87.8316 14.8858L78.5684 22.5143ZM78.3247 21.3831L65.5247 83.1831L77.2753 85.6169L90.0753 23.8169L78.3247 21.3831ZM65.5261 83.1763C65.4707 83.4424 65.389 83.5968 65.1352 83.8106L72.8648 92.9895C75.1444 91.0699 76.6626 88.5577 77.2739 85.6238L65.5261 83.1763ZM65.1352 83.8106C65.0072 83.9183 64.9317 83.9496 64.8995 83.9613C64.8669 83.9731 64.7818 84 64.6 84V96C67.6709 96 70.5087 94.9736 72.8648 92.9895L65.1352 83.8106ZM64.6 84H59.3V96H64.6V84ZM59.3 84C59.1182 84 59.0331 83.9731 59.0005 83.9613C58.9683 83.9496 58.8928 83.9183 58.7648 83.8106L51.0352 92.9895C53.3913 94.9736 56.2291 96 59.3 96V84ZM58.8862 83.9156C58.7225 83.7701 58.6621 83.6763 58.6184 83.4136L46.7816 85.3864C47.2712 88.3238 48.6775 90.8967 50.9138 92.8845L58.8862 83.9156ZM58.6267 83.4648L50.3267 30.8648L38.4733 32.7352L46.7733 85.3352L58.6267 83.4648ZM50.4 31.8C50.4 30.8418 50.1564 29.0211 48.6176 27.4823C47.0788 25.9436 45.2582 25.7 44.3 25.7V37.7C43.4085 37.7 41.6378 37.4731 40.1324 35.9677C38.627 34.4623 38.4 32.6916 38.4 31.8H50.4ZM44.3 25.7C43.3418 25.7 41.5211 25.9436 39.9824 27.4824C38.4436 29.0211 38.2 30.8418 38.2 31.8H50.2C50.2 32.6916 49.9731 34.4623 48.4676 35.9677C46.9622 37.4731 45.1915 37.7 44.3 37.7V25.7ZM38.2733 30.8648L29.9733 83.4648L41.8267 85.3352L50.1267 32.7352L38.2733 30.8648ZM29.9816 83.4136C29.9594 83.547 29.9312 83.5959 29.9236 83.6092C29.915 83.6241 29.8743 83.6934 29.7352 83.8106L37.4648 92.9895C39.7975 91.0251 41.3119 88.4252 41.8184 85.3864L29.9816 83.4136ZM29.6138 83.9156C29.5727 83.9521 29.5482 83.9678 29.5407 83.9723C29.5364 83.9749 29.5343 83.976 29.5339 83.9761C29.5336 83.9763 29.5334 83.9764 29.5326 83.9767C29.5318 83.977 29.5287 83.9781 29.5225 83.9798C29.5163 83.9814 29.5054 83.9841 29.4889 83.9869C29.4568 83.9924 29.3959 84 29.3 84V96C32.3748 96 35.2429 94.9674 37.5862 92.8845L29.6138 83.9156ZM29.3 84H24V96H29.3V84ZM24 84C23.8182 84 23.7331 83.9731 23.7005 83.9613C23.6683 83.9496 23.5928 83.9183 23.4648 83.8106L15.7352 92.9895C18.0913 94.9736 20.9291 96 24 96V84ZM23.4648 83.8106C23.211 83.5968 23.1293 83.4424 23.0739 83.1763L11.3261 85.6238C11.9374 88.5577 13.4557 91.0699 15.7352 92.9895L23.4648 83.8106ZM107.793 88.3L103.424 92.4122C103.465 92.4563 103.507 92.4998 103.55 92.5427L107.793 88.3ZM107.793 18.7L103.55 14.4574C103.507 14.5002 103.465 14.5437 103.424 14.5878L107.793 18.7ZM159.093 18.7L154.724 22.8122C154.765 22.8563 154.807 22.8998 154.85 22.9427L159.093 18.7ZM159.093 88.3L154.85 84.0574C154.807 84.1002 154.765 84.1437 154.724 84.1878L159.093 88.3ZM111.793 84C111.781 84 111.801 83.9991 111.844 84.0077C111.888 84.0164 111.939 84.0315 111.99 84.053C112.04 84.0744 112.073 84.0947 112.085 84.1034C112.097 84.1114 112.079 84.101 112.036 84.0574L103.55 92.5427C105.752 94.7444 108.59 96 111.793 96V84ZM112.162 84.1878C112.128 84.1511 112.12 84.137 112.127 84.1474C112.134 84.1586 112.149 84.1843 112.164 84.2217C112.179 84.2592 112.188 84.2925 112.192 84.3151C112.196 84.3368 112.193 84.3341 112.193 84.3H100.193C100.193 87.3871 101.327 90.1845 103.424 92.4122L112.162 84.1878ZM112.193 84.3V22.7H100.193V84.3H112.193ZM112.193 22.7C112.193 22.6659 112.196 22.6632 112.192 22.685C112.188 22.7075 112.179 22.7409 112.164 22.7784C112.149 22.8158 112.134 22.8415 112.127 22.8527C112.12 22.8631 112.128 22.8489 112.162 22.8122L103.424 14.5878C101.327 16.8156 100.193 19.613 100.193 22.7H112.193ZM112.036 22.9427C112.079 22.899 112.097 22.8886 112.085 22.8966C112.073 22.9053 112.04 22.9256 111.99 22.947C111.939 22.9686 111.888 22.9837 111.844 22.9924C111.801 23.0009 111.781 23 111.793 23V11C108.59 11 105.752 12.2556 103.55 14.4574L112.036 22.9427ZM111.793 23H114.493V11H111.793V23ZM114.493 23C114.505 23 114.485 23.0009 114.442 22.9924C114.398 22.9837 114.347 22.9686 114.296 22.947C114.246 22.9256 114.213 22.9053 114.201 22.8966C114.189 22.8886 114.207 22.899 114.25 22.9427L122.736 14.4574C120.534 12.2556 117.696 11 114.493 11V23ZM114.25 22.9427C114.294 22.9863 114.304 23.004 114.296 22.9924C114.288 22.9797 114.267 22.9472 114.246 22.8969C114.224 22.8461 114.209 22.7952 114.201 22.7511C114.192 22.7078 114.193 22.6881 114.193 22.7H126.193C126.193 19.4969 124.937 16.6592 122.736 14.4574L114.25 22.9427ZM114.193 22.7V45.4H126.193V22.7H114.193ZM114.193 45.4C114.193 46.5916 114.495 48.5873 116.15 50.2427C117.806 51.8981 119.801 52.2 120.993 52.2V40.2C121.651 40.2 123.247 40.3686 124.636 41.7574C126.024 43.1461 126.193 44.7418 126.193 45.4H114.193ZM120.993 52.2H145.993V40.2H120.993V52.2ZM145.993 52.2C147.185 52.2 149.18 51.8981 150.836 50.2427C152.491 48.5873 152.793 46.5916 152.793 45.4H140.793C140.793 44.7418 140.962 43.1461 142.35 41.7574C143.739 40.3686 145.335 40.2 145.993 40.2V52.2ZM152.793 45.4V22.7H140.793V45.4H152.793ZM152.793 22.7C152.793 22.6881 152.794 22.7078 152.785 22.7511C152.777 22.7952 152.762 22.8461 152.74 22.8969C152.719 22.9472 152.698 22.9797 152.69 22.9924C152.682 23.004 152.692 22.9863 152.736 22.9427L144.25 14.4574C142.049 16.6592 140.793 19.4969 140.793 22.7H152.793ZM152.736 22.9427C152.779 22.899 152.797 22.8886 152.785 22.8966C152.773 22.9053 152.74 22.9256 152.69 22.947C152.639 22.9686 152.588 22.9837 152.544 22.9924C152.501 23.0009 152.481 23 152.493 23V11C149.29 11 146.452 12.2556 144.25 14.4574L152.736 22.9427ZM152.493 23H155.193V11H152.493V23ZM155.193 23C155.205 23 155.179 23.001 155.123 22.9898C155.065 22.9783 154.995 22.9576 154.92 22.9252C154.756 22.8537 154.692 22.7789 154.724 22.8122L163.462 14.5878C161.281 12.2703 158.409 11 155.193 11V23ZM154.85 22.9427C154.894 22.9863 154.904 23.004 154.896 22.9924C154.888 22.9797 154.867 22.9472 154.846 22.8969C154.824 22.8461 154.809 22.7952 154.801 22.7511C154.792 22.7078 154.793 22.6881 154.793 22.7H166.793C166.793 19.4969 165.537 16.6592 163.336 14.4574L154.85 22.9427ZM154.793 22.7V84.3H166.793V22.7H154.793ZM154.793 84.3C154.793 84.312 154.792 84.2923 154.801 84.249C154.809 84.2049 154.824 84.1539 154.846 84.1032C154.867 84.0528 154.888 84.0203 154.896 84.0077C154.904 83.9961 154.894 84.0137 154.85 84.0574L163.336 92.5427C165.537 90.3409 166.793 87.5032 166.793 84.3H154.793ZM154.724 84.1878C154.692 84.2212 154.756 84.1464 154.92 84.0749C154.995 84.0424 155.065 84.0218 155.123 84.0103C155.179 83.9991 155.205 84 155.193 84V96C158.409 96 161.281 94.7298 163.462 92.4122L154.724 84.1878ZM155.193 84H152.493V96H155.193V84ZM152.493 84C152.481 84 152.501 83.9991 152.544 84.0077C152.588 84.0164 152.639 84.0315 152.69 84.053C152.74 84.0744 152.773 84.0947 152.785 84.1034C152.797 84.1114 152.779 84.101 152.736 84.0574L144.25 92.5427C146.452 94.7444 149.29 96 152.493 96V84ZM152.736 84.0574C152.692 84.0137 152.682 83.9961 152.69 84.0077C152.698 84.0203 152.719 84.0528 152.74 84.1032C152.762 84.1539 152.777 84.2049 152.785 84.249C152.794 84.2923 152.793 84.312 152.793 84.3H140.793C140.793 87.5032 142.049 90.3409 144.25 92.5427L152.736 84.0574ZM152.793 84.3V57.8H140.793V84.3H152.793ZM152.793 57.8C152.793 56.7378 152.572 54.8205 151.077 53.1388C149.463 51.3225 147.38 50.9 145.993 50.9V62.9C145.14 62.9 143.456 62.6276 142.109 61.1112C140.88 59.7295 140.793 58.2622 140.793 57.8H152.793ZM145.993 50.9H120.993V62.9H145.993V50.9ZM120.993 50.9C119.606 50.9 117.523 51.3225 115.909 53.1388C114.414 54.8205 114.193 56.7378 114.193 57.8H126.193C126.193 58.2622 126.106 59.7295 124.877 61.1112C123.53 62.6276 121.846 62.9 120.993 62.9V50.9ZM114.193 57.8V84.3H126.193V57.8H114.193ZM114.193 84.3C114.193 84.312 114.192 84.2923 114.201 84.249C114.209 84.2049 114.224 84.1539 114.246 84.1032C114.267 84.0528 114.288 84.0203 114.296 84.0077C114.304 83.9961 114.294 84.0137 114.25 84.0574L122.736 92.5427C124.937 90.3409 126.193 87.5032 126.193 84.3H114.193ZM114.25 84.0574C114.207 84.101 114.189 84.1114 114.201 84.1034C114.213 84.0947 114.246 84.0744 114.296 84.053C114.347 84.0315 114.398 84.0164 114.442 84.0077C114.485 83.9991 114.505 84 114.493 84V96C117.696 96 120.534 94.7444 122.736 92.5427L114.25 84.0574ZM114.493 84H111.793V96H114.493V84ZM230.803 26.7L234.915 31.0692C234.959 31.0277 235.003 30.9855 235.046 30.9427L230.803 26.7ZM228.903 47.8L224.526 51.9037C224.57 51.9507 224.615 51.9971 224.66 52.0427L228.903 47.8ZM230.803 80.4L226.56 84.6427C226.603 84.6855 226.647 84.7277 226.691 84.7692L230.803 80.4ZM192.803 84C192.791 84 192.811 83.9991 192.854 84.0077C192.898 84.0164 192.949 84.0315 193 84.053C193.05 84.0744 193.083 84.0947 193.095 84.1034C193.107 84.1114 193.089 84.101 193.046 84.0574L184.56 92.5427C186.762 94.7444 189.6 96 192.803 96V84ZM193.046 84.0574C193.002 84.0137 192.992 83.9961 193 84.0077C193.008 84.0203 193.029 84.0528 193.05 84.1032C193.072 84.1539 193.087 84.2049 193.095 84.249C193.104 84.2923 193.103 84.312 193.103 84.3H181.103C181.103 87.5032 182.359 90.3409 184.56 92.5427L193.046 84.0574ZM193.103 84.3V22.7H181.103V84.3H193.103ZM193.103 22.7C193.103 22.6881 193.104 22.7078 193.095 22.7511C193.087 22.7952 193.072 22.8461 193.05 22.8969C193.029 22.9472 193.008 22.9797 193 22.9924C192.992 23.004 193.002 22.9863 193.046 22.9427L184.56 14.4574C182.359 16.6592 181.103 19.4969 181.103 22.7H193.103ZM193.046 22.9427C193.089 22.899 193.107 22.8886 193.095 22.8966C193.083 22.9053 193.05 22.9256 193 22.947C192.949 22.9686 192.898 22.9837 192.854 22.9924C192.811 23.0009 192.791 23 192.803 23V11C189.6 11 186.762 12.2556 184.56 14.4574L193.046 22.9427ZM192.803 23H226.803V11H192.803V23ZM226.803 23C226.815 23 226.795 23.0009 226.752 22.9924C226.708 22.9837 226.657 22.9686 226.606 22.947C226.556 22.9256 226.523 22.9053 226.511 22.8966C226.499 22.8886 226.517 22.899 226.56 22.9427L235.046 14.4574C232.844 12.2556 230.006 11 226.803 11V23ZM226.56 22.9427C226.604 22.9863 226.615 23.004 226.607 22.9924C226.598 22.9797 226.578 22.9472 226.556 22.8969C226.535 22.8461 226.52 22.7952 226.511 22.7511C226.502 22.7078 226.503 22.6881 226.503 22.7H238.503C238.503 19.4969 237.248 16.6592 235.046 14.4574L226.56 22.9427ZM226.503 22.7C226.503 22.712 226.502 22.6923 226.511 22.649C226.52 22.6049 226.535 22.5539 226.556 22.5032C226.578 22.4528 226.598 22.4203 226.607 22.4077C226.615 22.3961 226.604 22.4137 226.56 22.4574L235.046 30.9427C237.248 28.7409 238.503 25.9032 238.503 22.7H226.503ZM226.691 22.3308C226.654 22.3654 226.64 22.373 226.65 22.3663C226.662 22.359 226.687 22.3441 226.725 22.3292C226.762 22.3142 226.796 22.3054 226.818 22.3012C226.84 22.2972 226.837 22.3 226.803 22.3V34.3C229.89 34.3 232.688 33.1659 234.915 31.0692L226.691 22.3308ZM226.803 22.3H202.003V34.3H226.803V22.3ZM202.003 22.3C200.778 22.3 198.758 22.6103 197.085 24.2824C195.413 25.9545 195.103 27.9752 195.103 29.2H207.103C207.103 29.8249 206.943 31.3956 205.571 32.7677C204.199 34.1397 202.628 34.3 202.003 34.3V22.3ZM195.103 29.2V45.3H207.103V29.2H195.103ZM195.103 45.3C195.103 46.5249 195.413 48.5456 197.085 50.2177C198.758 51.8897 200.778 52.2 202.003 52.2V40.2C202.628 40.2 204.199 40.3603 205.571 41.7324C206.943 43.1045 207.103 44.6752 207.103 45.3H195.103ZM202.003 52.2H225.103V40.2H202.003V52.2ZM225.103 52.2C225.163 52.2 225.059 52.2075 224.875 52.1298C224.684 52.0495 224.564 51.9443 224.526 51.9037L233.28 43.6964C231.085 41.3551 228.204 40.2 225.103 40.2V52.2ZM224.66 52.0427C224.699 52.0809 224.636 52.0273 224.573 51.8784C224.545 51.8103 224.525 51.744 224.514 51.6866C224.503 51.6302 224.503 51.5986 224.503 51.6H236.503C236.503 48.492 235.302 45.7134 233.146 43.5574L224.66 52.0427ZM224.503 51.6C224.503 51.6014 224.503 51.5699 224.514 51.5135C224.525 51.4561 224.545 51.3897 224.573 51.3217C224.636 51.1728 224.699 51.1191 224.66 51.1574L233.146 59.6427C235.302 57.4867 236.503 54.7081 236.503 51.6H224.503ZM224.66 51.1574C224.683 51.1347 224.727 51.0958 224.792 51.0527C224.858 51.0092 224.929 50.9721 225 50.9441C225.151 50.8845 225.21 50.9 225.103 50.9V62.9C228.08 62.9 230.92 61.8683 233.146 59.6427L224.66 51.1574ZM225.103 50.9H202.003V62.9H225.103V50.9ZM202.003 50.9C200.778 50.9 198.758 51.2103 197.085 52.8824C195.413 54.5545 195.103 56.5752 195.103 57.8H207.103C207.103 58.4249 206.943 59.9956 205.571 61.3677C204.199 62.7397 202.628 62.9 202.003 62.9V50.9ZM195.103 57.8V77.8H207.103V57.8H195.103ZM195.103 77.8C195.103 79.0249 195.413 81.0456 197.085 82.7177C198.758 84.3897 200.778 84.7 202.003 84.7V72.7C202.628 72.7 204.199 72.8603 205.571 74.2324C206.943 75.6045 207.103 77.1752 207.103 77.8H195.103ZM202.003 84.7H226.803V72.7H202.003V84.7ZM226.803 84.7C226.815 84.7 226.795 84.7009 226.752 84.6924C226.708 84.6837 226.657 84.6686 226.606 84.647C226.556 84.6256 226.523 84.6053 226.511 84.5966C226.499 84.5886 226.517 84.599 226.56 84.6427L235.046 76.1574C232.844 73.9556 230.006 72.7 226.803 72.7V84.7ZM226.691 84.7692C226.724 84.8006 226.649 84.7366 226.578 84.5725C226.546 84.4981 226.525 84.4279 226.513 84.3705C226.502 84.3143 226.503 84.2878 226.503 84.3H238.503C238.503 81.0844 237.233 78.2121 234.915 76.0308L226.691 84.7692ZM226.503 84.3C226.503 84.312 226.502 84.2923 226.511 84.249C226.52 84.2049 226.535 84.1539 226.556 84.1032C226.578 84.0528 226.598 84.0203 226.607 84.0077C226.615 83.9961 226.604 84.0137 226.56 84.0574L235.046 92.5427C237.248 90.3409 238.503 87.5032 238.503 84.3H226.503ZM226.56 84.0574C226.517 84.101 226.499 84.1114 226.511 84.1034C226.523 84.0947 226.556 84.0744 226.606 84.053C226.657 84.0315 226.708 84.0164 226.752 84.0077C226.795 83.9991 226.815 84 226.803 84V96C230.006 96 232.844 94.7444 235.046 92.5427L226.56 84.0574ZM226.803 84H192.803V96H226.803V84ZM272.459 27.4L271.561 21.4677C271.425 21.4882 271.291 21.5133 271.158 21.5429L272.459 27.4ZM263.359 16.8L263.858 22.7793C263.879 22.7775 263.9 22.7756 263.922 22.7736L263.359 16.8ZM301.759 21.5L298.149 26.2921C298.163 26.3027 298.177 26.3132 298.191 26.3237L301.759 21.5ZM305.159 49.3L300.295 45.7871C300.281 45.807 300.267 45.827 300.253 45.8471L305.159 49.3ZM294.859 56.9V62.9C295.514 62.9 296.163 62.793 296.783 62.5833L294.859 56.9ZM294.859 57.2L298.039 52.112C297.086 51.516 295.984 51.2 294.859 51.2V57.2ZM303.059 69L308.664 66.8581C308.661 66.8513 308.659 66.8445 308.656 66.8376L303.059 69ZM309.059 84.7L314.689 82.6258C314.681 82.6032 314.673 82.5806 314.664 82.5581L309.059 84.7ZM308.559 88.3L303.658 84.8399C303.611 84.9059 303.566 84.9728 303.522 85.0405L308.559 88.3ZM297.659 88.6L294.172 93.4824C294.224 93.5199 294.278 93.5566 294.331 93.5923L297.659 88.6ZM294.659 84.7L289.021 86.7505C289.027 86.7693 289.034 86.788 289.041 86.8068L294.659 84.7ZM289.059 69.3L294.698 67.2496C294.691 67.2308 294.684 67.212 294.677 67.1933L289.059 69.3ZM269.859 88.3L265.617 84.0574C265.574 84.1002 265.532 84.1437 265.49 84.1878L269.859 88.3ZM265.559 28.4V50.1H277.559V28.4H265.559ZM265.559 50.1C265.559 51.4866 265.982 53.57 267.798 55.1845C269.48 56.6793 271.397 56.9 272.459 56.9V44.9C272.922 44.9 274.389 44.9874 275.771 46.2156C277.287 47.5634 277.559 49.2468 277.559 50.1H265.559ZM272.459 56.9H277.459V44.9H272.459V56.9ZM277.459 56.9C283.925 56.9 289.851 55.7794 294.294 52.6093C299.11 49.173 301.259 44.0131 301.259 38.2H289.259C289.259 40.8536 288.442 42.0437 287.325 42.8408C285.834 43.9039 282.861 44.9 277.459 44.9V56.9ZM301.259 38.2C301.259 32.7536 299.141 27.936 294.525 24.7747C290.317 21.8931 284.758 20.9 278.759 20.9V32.9C283.761 32.9 286.452 33.7903 287.744 34.6754C288.628 35.2808 289.259 36.1131 289.259 38.2H301.259ZM278.759 20.9C276.427 20.9 274.025 21.0943 271.561 21.4677L273.358 33.3323C275.293 33.0391 277.092 32.9 278.759 32.9V20.9ZM271.158 21.5429C270.08 21.7823 268.569 22.354 267.325 23.7362C266.001 25.2067 265.559 26.9475 265.559 28.4H277.559C277.559 29.3192 277.268 30.6267 276.244 31.7638C275.3 32.8127 274.238 33.1511 273.761 33.2571L271.158 21.5429ZM263.459 84C263.447 84 263.467 83.9991 263.51 84.0077C263.555 84.0164 263.605 84.0315 263.656 84.053C263.707 84.0744 263.739 84.0947 263.752 84.1034C263.763 84.1114 263.746 84.101 263.702 84.0574L255.217 92.5427C257.419 94.7444 260.256 96 263.459 96V84ZM263.702 84.0574C263.658 84.0137 263.648 83.9961 263.656 84.0077C263.665 84.0203 263.685 84.0528 263.706 84.1032C263.728 84.1539 263.743 84.2049 263.752 84.249C263.76 84.2923 263.759 84.312 263.759 84.3H251.759C251.759 87.5032 253.015 90.3409 255.217 92.5427L263.702 84.0574ZM263.759 84.3V23.2H251.759V84.3H263.759ZM263.759 23.2C263.759 23.0809 263.777 23.034 263.783 23.0174C263.79 22.998 263.823 22.9148 263.949 22.7648L254.77 15.0352C252.827 17.3424 251.759 20.1328 251.759 23.2H263.759ZM263.949 22.7648C263.994 22.7117 264.016 22.6939 264.012 22.6971C264.007 22.7011 263.986 22.7179 263.948 22.7374C263.911 22.7571 263.875 22.7704 263.849 22.7779C263.824 22.7851 263.824 22.7821 263.858 22.7793L262.861 10.8208C259.615 11.0912 256.829 12.5905 254.77 15.0352L263.949 22.7648ZM263.922 22.7736C269.416 22.2565 274.695 22 279.759 22V10C274.291 10 268.636 10.2769 262.797 10.8264L263.922 22.7736ZM279.759 22C288.989 22 294.786 23.7583 298.149 26.2921L305.37 16.7079C299 11.9085 290.129 10 279.759 10V22ZM298.191 26.3237C301.375 28.6788 303.059 31.9033 303.059 36.8H315.059C315.059 28.4968 311.877 21.5212 305.328 16.6763L298.191 26.3237ZM303.059 36.8C303.059 40.3602 302.107 43.2787 300.295 45.7871L310.023 52.813C313.412 48.1213 315.059 42.7065 315.059 36.8H303.059ZM300.253 45.8471C298.482 48.3631 296.114 50.1411 292.936 51.2167L296.783 62.5833C302.272 60.7256 306.77 57.4369 310.066 52.753L300.253 45.8471ZM294.859 50.9C293.901 50.9 292.08 51.1437 290.542 52.6825C289.003 54.2212 288.759 56.0419 288.759 57H300.759C300.759 57.8915 300.532 59.6622 299.027 61.1676C297.522 62.6731 295.751 62.9 294.859 62.9V50.9ZM288.759 57C288.759 57.3731 288.774 58.5462 289.418 59.8333C289.782 60.5617 290.42 61.4685 291.487 62.1798C292.592 62.9161 293.793 63.2 294.859 63.2V51.2C295.893 51.2 297.064 51.4756 298.144 52.1953C299.186 52.8899 299.803 53.7717 300.151 54.4668C300.761 55.6872 300.759 56.7603 300.759 57H288.759ZM291.679 62.288C293.259 63.2751 295.38 65.772 297.463 71.1624L308.656 66.8376C306.206 60.4947 302.86 55.1249 298.039 52.112L291.679 62.288ZM297.455 71.1419L303.455 86.8419L314.664 82.5581L308.664 66.8581L297.455 71.1419ZM303.429 86.7743C303.361 86.5891 303.274 86.2098 303.341 85.7246C303.408 85.2465 303.586 84.9416 303.658 84.8399L313.461 91.7601C315.362 89.0674 315.861 85.8051 314.689 82.6258L303.429 86.7743ZM303.522 85.0405C303.616 84.8946 303.874 84.5748 304.349 84.3142C304.828 84.0518 305.252 84 305.459 84V96C308.858 96 311.774 94.3759 313.597 91.5595L303.522 85.0405ZM305.459 84H302.359V96H305.459V84ZM302.359 84C301.773 84 301.371 83.8633 300.988 83.6077L294.331 93.5923C296.748 95.2034 299.479 96 302.359 96V84ZM301.147 83.7176C300.71 83.4056 300.456 83.0688 300.277 82.5933L289.041 86.8068C290.063 89.5312 291.809 91.7945 294.172 93.4824L301.147 83.7176ZM300.298 82.6496L294.698 67.2496L283.421 71.3505L289.021 86.7505L300.298 82.6496ZM294.677 67.1933C293.364 63.6916 291.433 60.0587 288.237 57.9744L281.682 68.0257C281.542 67.9344 281.72 68.0051 282.106 68.5978C282.482 69.1767 282.943 70.0789 283.441 71.4068L294.677 67.1933ZM288.237 57.9744C285.142 55.9561 280.969 55.5 277.059 55.5V67.5C278.685 67.5 279.879 67.611 280.715 67.7697C281.589 67.9356 281.801 68.1036 281.682 68.0257L288.237 57.9744ZM277.059 55.5H272.459V67.5H277.059V55.5ZM272.459 55.5C271.235 55.5 269.214 55.8103 267.542 57.4824C265.87 59.1545 265.559 61.1752 265.559 62.4H277.559C277.559 63.0249 277.399 64.5956 276.027 65.9677C274.655 67.3397 273.084 67.5 272.459 67.5V55.5ZM265.559 62.4V84.3H277.559V62.4H265.559ZM265.559 84.3C265.559 84.312 265.558 84.2923 265.567 84.249C265.576 84.2049 265.591 84.1539 265.612 84.1032C265.634 84.0528 265.654 84.0203 265.663 84.0077C265.671 83.9961 265.66 84.0137 265.617 84.0574L274.102 92.5427C276.304 90.3409 277.559 87.5032 277.559 84.3H265.559ZM265.49 84.1878C265.459 84.2212 265.523 84.1464 265.687 84.0749C265.761 84.0424 265.832 84.0218 265.889 84.0103C265.945 83.9991 265.972 84 265.959 84V96C269.175 96 272.047 94.7298 274.229 92.4122L265.49 84.1878ZM265.959 84H263.459V96H265.959V84ZM375.338 26.7L379.45 31.0692C379.495 31.0277 379.538 30.9855 379.581 30.9427L375.338 26.7ZM373.438 47.8L369.061 51.9037C369.105 51.9507 369.15 51.9971 369.196 52.0427L373.438 47.8ZM375.338 80.4L371.096 84.6427C371.138 84.6855 371.182 84.7277 371.226 84.7692L375.338 80.4ZM337.338 84C337.326 84 337.346 83.9991 337.389 84.0077C337.433 84.0164 337.484 84.0315 337.535 84.053C337.585 84.0744 337.618 84.0947 337.631 84.1034C337.642 84.1114 337.625 84.101 337.581 84.0574L329.096 92.5427C331.297 94.7444 334.135 96 337.338 96V84ZM337.581 84.0574C337.537 84.0137 337.527 83.9961 337.535 84.0077C337.544 84.0203 337.564 84.0528 337.585 84.1032C337.607 84.1539 337.622 84.2049 337.631 84.249C337.639 84.2923 337.638 84.312 337.638 84.3H325.638C325.638 87.5032 326.894 90.3409 329.096 92.5427L337.581 84.0574ZM337.638 84.3V22.7H325.638V84.3H337.638ZM337.638 22.7C337.638 22.6881 337.639 22.7078 337.631 22.7511C337.622 22.7952 337.607 22.8461 337.585 22.8969C337.564 22.9472 337.544 22.9797 337.535 22.9924C337.527 23.004 337.537 22.9863 337.581 22.9427L329.096 14.4574C326.894 16.6592 325.638 19.4969 325.638 22.7H337.638ZM337.581 22.9427C337.625 22.899 337.642 22.8886 337.631 22.8966C337.618 22.9053 337.585 22.9256 337.535 22.947C337.484 22.9686 337.433 22.9837 337.389 22.9924C337.346 23.0009 337.326 23 337.338 23V11C334.135 11 331.297 12.2556 329.096 14.4574L337.581 22.9427ZM337.338 23H371.338V11H337.338V23ZM371.338 23C371.35 23 371.331 23.0009 371.287 22.9924C371.243 22.9837 371.192 22.9686 371.141 22.947C371.091 22.9256 371.059 22.9053 371.046 22.8966C371.034 22.8886 371.052 22.899 371.096 22.9427L379.581 14.4574C377.379 12.2556 374.541 11 371.338 11V23ZM371.096 22.9427C371.139 22.9863 371.15 23.004 371.142 22.9924C371.133 22.9797 371.113 22.9472 371.091 22.8969C371.07 22.8461 371.055 22.7952 371.046 22.7511C371.037 22.7078 371.038 22.6881 371.038 22.7H383.038C383.038 19.4969 381.783 16.6592 379.581 14.4574L371.096 22.9427ZM371.038 22.7C371.038 22.712 371.037 22.6923 371.046 22.649C371.055 22.6049 371.07 22.5539 371.091 22.5032C371.113 22.4528 371.133 22.4203 371.142 22.4077C371.15 22.3961 371.139 22.4137 371.096 22.4574L379.581 30.9427C381.783 28.7409 383.038 25.9032 383.038 22.7H371.038ZM371.226 22.3308C371.189 22.3654 371.175 22.373 371.186 22.3663C371.197 22.359 371.223 22.3441 371.26 22.3292C371.297 22.3142 371.331 22.3054 371.353 22.3012C371.375 22.2972 371.372 22.3 371.338 22.3V34.3C374.425 34.3 377.223 33.1659 379.45 31.0692L371.226 22.3308ZM371.338 22.3H346.538V34.3H371.338V22.3ZM346.538 22.3C345.313 22.3 343.293 22.6103 341.621 24.2824C339.949 25.9545 339.638 27.9752 339.638 29.2H351.638C351.638 29.8249 351.478 31.3956 350.106 32.7677C348.734 34.1397 347.163 34.3 346.538 34.3V22.3ZM339.638 29.2V45.3H351.638V29.2H339.638ZM339.638 45.3C339.638 46.5249 339.949 48.5456 341.621 50.2177C343.293 51.8897 345.313 52.2 346.538 52.2V40.2C347.163 40.2 348.734 40.3603 350.106 41.7324C351.478 43.1045 351.638 44.6752 351.638 45.3H339.638ZM346.538 52.2H369.638V40.2H346.538V52.2ZM369.638 52.2C369.698 52.2 369.594 52.2075 369.41 52.1298C369.219 52.0495 369.099 51.9443 369.061 51.9037L377.816 43.6964C375.621 41.3551 372.739 40.2 369.638 40.2V52.2ZM369.196 52.0427C369.234 52.0809 369.171 52.0273 369.108 51.8784C369.08 51.8103 369.061 51.744 369.049 51.6866C369.038 51.6302 369.038 51.5986 369.038 51.6H381.038C381.038 48.492 379.837 45.7134 377.681 43.5574L369.196 52.0427ZM369.038 51.6C369.038 51.6014 369.038 51.5699 369.049 51.5135C369.061 51.4561 369.08 51.3897 369.108 51.3217C369.171 51.1728 369.234 51.1191 369.196 51.1574L377.681 59.6427C379.837 57.4867 381.038 54.7081 381.038 51.6H369.038ZM369.196 51.1574C369.218 51.1347 369.262 51.0958 369.327 51.0527C369.393 51.0092 369.464 50.9721 369.535 50.9441C369.686 50.8845 369.745 50.9 369.638 50.9V62.9C372.615 62.9 375.455 61.8683 377.681 59.6427L369.196 51.1574ZM369.638 50.9H346.538V62.9H369.638V50.9ZM346.538 50.9C345.313 50.9 343.293 51.2103 341.621 52.8824C339.949 54.5545 339.638 56.5752 339.638 57.8H351.638C351.638 58.4249 351.478 59.9956 350.106 61.3677C348.734 62.7397 347.163 62.9 346.538 62.9V50.9ZM339.638 57.8V77.8H351.638V57.8H339.638ZM339.638 77.8C339.638 79.0249 339.949 81.0456 341.621 82.7177C343.293 84.3897 345.313 84.7 346.538 84.7V72.7C347.163 72.7 348.734 72.8603 350.106 74.2324C351.478 75.6045 351.638 77.1752 351.638 77.8H339.638ZM346.538 84.7H371.338V72.7H346.538V84.7ZM371.338 84.7C371.35 84.7 371.331 84.7009 371.287 84.6924C371.243 84.6837 371.192 84.6686 371.141 84.647C371.091 84.6256 371.059 84.6053 371.046 84.5966C371.034 84.5886 371.052 84.599 371.096 84.6427L379.581 76.1574C377.379 73.9556 374.541 72.7 371.338 72.7V84.7ZM371.226 84.7692C371.259 84.8006 371.185 84.7366 371.113 84.5725C371.081 84.4981 371.06 84.4279 371.049 84.3705C371.037 84.3143 371.038 84.2878 371.038 84.3H383.038C383.038 81.0844 381.768 78.2121 379.45 76.0308L371.226 84.7692ZM371.038 84.3C371.038 84.312 371.037 84.2923 371.046 84.249C371.055 84.2049 371.07 84.1539 371.091 84.1032C371.113 84.0528 371.133 84.0203 371.142 84.0077C371.15 83.9961 371.139 84.0137 371.096 84.0574L379.581 92.5427C381.783 90.3409 383.038 87.5032 383.038 84.3H371.038ZM371.096 84.0574C371.052 84.101 371.034 84.1114 371.046 84.1034C371.059 84.0947 371.091 84.0744 371.141 84.053C371.192 84.0315 371.243 84.0164 371.287 84.0077C371.331 83.9991 371.35 84 371.338 84V96C374.541 96 377.379 94.7444 379.581 92.5427L371.096 84.0574ZM371.338 84H337.338V96H371.338V84ZM7.10001 115L2.85737 119.243C2.90021 119.286 2.9437 119.328 2.98782 119.369L7.10001 115ZM57.7 115L61.8122 119.369C61.8563 119.328 61.8998 119.286 61.9426 119.243L57.7 115ZM11.1 110.6C11.0659 110.6 11.0632 110.597 11.085 110.601C11.1075 110.605 11.1408 110.614 11.1783 110.629C11.2157 110.644 11.2414 110.659 11.2527 110.666C11.2631 110.673 11.2489 110.665 11.2122 110.631L2.98782 119.369C5.21555 121.466 8.01294 122.6 11.1 122.6V110.6ZM11.3426 110.757C11.299 110.714 11.2886 110.696 11.2966 110.708C11.3053 110.72 11.3256 110.753 11.347 110.803C11.3685 110.854 11.3836 110.905 11.3924 110.949C11.4009 110.992 11.4 111.012 11.4 111H-0.599993C-0.599993 114.203 0.655594 117.041 2.85737 119.243L11.3426 110.757ZM11.4 111V110.7H-0.599993V111H11.4ZM11.4 110.7C11.4 110.688 11.4009 110.708 11.3924 110.751C11.3836 110.795 11.3685 110.846 11.347 110.897C11.3256 110.947 11.3053 110.98 11.2966 110.992C11.2886 111.004 11.299 110.986 11.3426 110.943L2.85738 102.457C0.655602 104.659 -0.599993 107.497 -0.599993 110.7H11.4ZM11.3426 110.943C11.3863 110.899 11.4039 110.889 11.3923 110.897C11.3797 110.905 11.3472 110.926 11.2968 110.947C11.2461 110.969 11.1952 110.984 11.151 110.992C11.1077 111.001 11.0881 111 11.1 111V99C7.89685 99 5.05915 100.256 2.85738 102.457L11.3426 110.943ZM11.1 111H53.7V99H11.1V111ZM53.7 111C53.7119 111 53.6923 111.001 53.649 110.992C53.6048 110.984 53.5539 110.969 53.5032 110.947C53.4528 110.926 53.4203 110.905 53.4077 110.897C53.3961 110.889 53.4137 110.899 53.4574 110.943L61.9426 102.457C59.7409 100.256 56.9032 99 53.7 99V111ZM53.4574 110.943C53.501 110.986 53.5114 111.004 53.5034 110.992C53.4947 110.98 53.4744 110.947 53.453 110.897C53.4315 110.846 53.4164 110.795 53.4077 110.751C53.3991 110.708 53.4 110.688 53.4 110.7H65.4C65.4 107.497 64.1444 104.659 61.9426 102.457L53.4574 110.943ZM53.4 110.7V111H65.4V110.7H53.4ZM53.4 111C53.4 111.012 53.3991 110.992 53.4077 110.949C53.4164 110.905 53.4315 110.854 53.453 110.803C53.4744 110.753 53.4947 110.72 53.5034 110.708C53.5114 110.696 53.501 110.714 53.4574 110.757L61.9426 119.243C64.1444 117.041 65.4 114.203 65.4 111H53.4ZM53.5878 110.631C53.5511 110.665 53.5369 110.673 53.5474 110.666C53.5586 110.659 53.5843 110.644 53.6217 110.629C53.6592 110.614 53.6925 110.605 53.7151 110.601C53.7368 110.597 53.7341 110.6 53.7 110.6V122.6C56.7871 122.6 59.5845 121.466 61.8122 119.369L53.5878 110.631ZM53.7 110.6H40.3V122.6H53.7V110.6ZM40.3 110.6C38.9134 110.6 36.8301 111.022 35.2155 112.839C33.7207 114.521 33.5 116.438 33.5 117.5H45.5C45.5 117.962 45.4126 119.43 44.1845 120.811C42.8366 122.328 41.1532 122.6 40.3 122.6V110.6ZM33.5 117.5V172.3H45.5V117.5H33.5ZM33.5 172.3C33.5 172.312 33.4991 172.292 33.5076 172.249C33.5164 172.205 33.5315 172.154 33.553 172.103C33.5744 172.053 33.5947 172.02 33.6034 172.008C33.6114 171.996 33.601 172.014 33.5574 172.057L42.0426 180.543C44.2444 178.341 45.5 175.503 45.5 172.3H33.5ZM33.5574 172.057C33.5137 172.101 33.4961 172.111 33.5077 172.103C33.5203 172.095 33.5528 172.074 33.6032 172.053C33.6539 172.031 33.7048 172.016 33.749 172.008C33.7923 171.999 33.8119 172 33.8 172V184C37.0032 184 39.8409 182.744 42.0426 180.543L33.5574 172.057ZM33.8 172H31V184H33.8V172ZM31 172C30.9881 172 31.0077 171.999 31.051 172.008C31.0952 172.016 31.1461 172.031 31.1968 172.053C31.2472 172.074 31.2797 172.095 31.2923 172.103C31.3039 172.111 31.2863 172.101 31.2426 172.057L22.7574 180.543C24.9591 182.744 27.7968 184 31 184V172ZM31.2426 172.057C31.199 172.014 31.1886 171.996 31.1966 172.008C31.2053 172.02 31.2256 172.053 31.247 172.103C31.2686 172.154 31.2836 172.205 31.2924 172.249C31.3009 172.292 31.3 172.312 31.3 172.3H19.3C19.3 175.503 20.5556 178.341 22.7574 180.543L31.2426 172.057ZM31.3 172.3V117.5H19.3V172.3H31.3ZM31.3 117.5C31.3 116.438 31.0793 114.521 29.5845 112.839C27.9699 111.022 25.8866 110.6 24.5 110.6V122.6C23.6468 122.6 21.9634 122.328 20.6155 120.811C19.3874 119.43 19.3 117.962 19.3 117.5H31.3ZM24.5 110.6H11.1V122.6H24.5V110.6ZM121.84 169.1L117.4 165.064C117.393 165.072 117.385 165.08 117.378 165.089L121.84 169.1ZM73.1398 169.1L68.6778 173.111C68.6853 173.12 68.6927 173.128 68.7002 173.136L73.1398 169.1ZM73.1398 113.9L68.7002 109.864C68.6927 109.872 68.6853 109.88 68.6778 109.889L73.1398 113.9ZM121.84 113.9L117.378 117.911C117.385 117.92 117.393 117.928 117.4 117.936L121.84 113.9ZM122.54 141.5C122.54 132.28 120.887 124.28 116.634 118.46C112.125 112.29 105.397 109.5 97.5398 109.5V121.5C102.35 121.5 105.121 123.044 106.946 125.54C109.026 128.387 110.54 133.386 110.54 141.5H122.54ZM97.5398 109.5C89.6832 109.5 82.9546 112.29 78.4455 118.46C74.1925 124.28 72.5398 132.28 72.5398 141.5H84.5398C84.5398 133.386 86.0538 128.387 88.1342 125.54C89.9585 123.044 92.7299 121.5 97.5398 121.5V109.5ZM72.5398 141.5C72.5398 150.72 74.1925 158.72 78.4455 164.54C82.9546 170.71 89.6832 173.5 97.5398 173.5V161.5C92.7299 161.5 89.9585 159.956 88.1342 157.46C86.0538 154.613 84.5398 149.614 84.5398 141.5H72.5398ZM97.5398 173.5C105.397 173.5 112.125 170.71 116.634 164.54C120.887 158.72 122.54 150.72 122.54 141.5H110.54C110.54 149.614 109.026 154.613 106.946 157.46C105.121 159.956 102.35 161.5 97.5398 161.5V173.5ZM117.378 165.089C112.765 170.22 106.398 173 97.5398 173V185C109.215 185 119.048 181.18 126.302 173.111L117.378 165.089ZM97.5398 173C88.6826 173 82.2661 170.219 77.5795 165.064L68.7002 173.136C76.0136 181.181 85.8638 185 97.5398 185V173ZM77.6018 165.089C72.947 159.911 70.2398 152.316 70.2398 141.5H58.2398C58.2398 154.284 61.466 165.089 68.6778 173.111L77.6018 165.089ZM70.2398 141.5C70.2398 130.684 72.947 123.089 77.6018 117.911L68.6778 109.889C61.466 117.911 58.2398 128.716 58.2398 141.5H70.2398ZM77.5795 117.936C82.2661 112.781 88.6826 110 97.5398 110V98C85.8638 98 76.0136 101.819 68.7002 109.864L77.5795 117.936ZM97.5398 110C106.398 110 112.765 112.78 117.378 117.911L126.302 109.889C119.048 101.82 109.215 98 97.5398 98V110ZM117.4 117.936C122.108 123.115 124.84 130.7 124.84 141.5H136.84C136.84 128.7 133.572 117.885 126.279 109.864L117.4 117.936ZM124.84 141.5C124.84 152.3 122.108 159.885 117.4 165.064L126.279 173.136C133.572 165.115 136.84 154.3 136.84 141.5H124.84ZM172.195 176.3L167.826 180.412C167.868 180.456 167.91 180.5 167.953 180.543L172.195 176.3ZM172.195 106.7L167.953 102.457C167.91 102.5 167.868 102.544 167.826 102.588L172.195 106.7ZM215.495 168.1L211.126 172.212C211.209 172.3 211.295 172.386 211.383 172.469L215.495 168.1ZM215.495 176.3L211.253 172.057C211.21 172.1 211.168 172.144 211.126 172.188L215.495 176.3ZM176.195 172C176.183 172 176.203 171.999 176.246 172.008C176.29 172.016 176.341 172.031 176.392 172.053C176.443 172.074 176.475 172.095 176.488 172.103C176.499 172.111 176.482 172.101 176.438 172.057L167.953 180.543C170.154 182.744 172.992 184 176.195 184V172ZM176.565 172.188C176.53 172.151 176.522 172.137 176.529 172.147C176.536 172.159 176.551 172.184 176.566 172.222C176.581 172.259 176.59 172.293 176.594 172.315C176.598 172.337 176.595 172.334 176.595 172.3H164.595C164.595 175.387 165.729 178.184 167.826 180.412L176.565 172.188ZM176.595 172.3V110.7H164.595V172.3H176.595ZM176.595 110.7C176.595 110.666 176.598 110.663 176.594 110.685C176.59 110.708 176.581 110.741 176.566 110.778C176.551 110.816 176.536 110.841 176.529 110.853C176.522 110.863 176.53 110.849 176.565 110.812L167.826 102.588C165.729 104.816 164.595 107.613 164.595 110.7H176.595ZM176.438 110.943C176.482 110.899 176.499 110.889 176.488 110.897C176.475 110.905 176.443 110.926 176.392 110.947C176.341 110.969 176.29 110.984 176.246 110.992C176.203 111.001 176.183 111 176.195 111V99C172.992 99 170.154 100.256 167.953 102.457L176.438 110.943ZM176.195 111H179.395V99H176.195V111ZM179.395 111C179.407 111 179.388 111.001 179.344 110.992C179.3 110.984 179.249 110.969 179.198 110.947C179.148 110.926 179.116 110.905 179.103 110.897C179.091 110.889 179.109 110.899 179.153 110.943L187.638 102.457C185.436 100.256 182.598 99 179.395 99V111ZM179.153 110.943C179.196 110.986 179.207 111.004 179.199 110.992C179.19 110.98 179.17 110.947 179.148 110.897C179.127 110.846 179.112 110.795 179.103 110.751C179.094 110.708 179.095 110.688 179.095 110.7H191.095C191.095 107.497 189.84 104.659 187.638 102.457L179.153 110.943ZM179.095 110.7V165.5H191.095V110.7H179.095ZM179.095 165.5C179.095 166.562 179.316 168.48 180.811 170.161C182.425 171.978 184.509 172.4 185.895 172.4V160.4C186.749 160.4 188.432 160.672 189.78 162.189C191.008 163.571 191.095 165.038 191.095 165.5H179.095ZM185.895 172.4H211.595V160.4H185.895V172.4ZM211.595 172.4C211.608 172.4 211.581 172.401 211.525 172.39C211.467 172.378 211.397 172.358 211.323 172.325C211.159 172.254 211.095 172.179 211.126 172.212L219.865 163.988C217.683 161.67 214.811 160.4 211.595 160.4V172.4ZM211.383 172.469C211.416 172.501 211.342 172.437 211.27 172.273C211.238 172.198 211.217 172.128 211.206 172.07C211.194 172.014 211.195 171.988 211.195 172H223.195C223.195 168.784 221.925 165.912 219.607 163.731L211.383 172.469ZM211.195 172V172.3H223.195V172H211.195ZM211.195 172.3C211.195 172.312 211.194 172.292 211.203 172.249C211.212 172.205 211.227 172.154 211.248 172.103C211.27 172.053 211.29 172.02 211.299 172.008C211.307 171.996 211.296 172.014 211.253 172.057L219.738 180.543C221.94 178.341 223.195 175.503 223.195 172.3H211.195ZM211.126 172.188C211.095 172.221 211.159 172.146 211.323 172.075C211.397 172.042 211.467 172.022 211.525 172.01C211.581 171.999 211.608 172 211.595 172V184C214.811 184 217.683 182.73 219.865 180.412L211.126 172.188ZM211.595 172H176.195V184H211.595V172ZM238.159 172C238.147 172 238.166 171.999 238.21 172.008C238.254 172.016 238.305 172.031 238.355 172.053C238.406 172.074 238.438 172.095 238.451 172.103C238.463 172.111 238.445 172.101 238.401 172.057L229.916 180.543C232.118 182.744 234.955 184 238.159 184V172ZM238.401 172.057C238.358 172.014 238.347 171.996 238.355 172.008C238.364 172.02 238.384 172.053 238.406 172.103C238.427 172.154 238.442 172.205 238.451 172.249C238.46 172.292 238.459 172.312 238.459 172.3H226.459C226.459 175.503 227.714 178.341 229.916 180.543L238.401 172.057ZM238.459 172.3V110.7H226.459V172.3H238.459ZM238.459 110.7C238.459 110.688 238.46 110.708 238.451 110.751C238.442 110.795 238.427 110.846 238.406 110.897C238.384 110.947 238.364 110.98 238.355 110.992C238.347 111.004 238.358 110.986 238.401 110.943L229.916 102.457C227.714 104.659 226.459 107.497 226.459 110.7H238.459ZM238.401 110.943C238.445 110.899 238.463 110.889 238.451 110.897C238.438 110.905 238.406 110.926 238.355 110.947C238.305 110.969 238.254 110.984 238.21 110.992C238.166 111.001 238.147 111 238.159 111V99C234.955 99 232.118 100.256 229.916 102.457L238.401 110.943ZM238.159 111H242.159V99H238.159V111ZM242.159 111C242.171 111 242.151 111.001 242.108 110.992C242.063 110.984 242.012 110.969 241.962 110.947C241.911 110.926 241.879 110.905 241.866 110.897C241.855 110.889 241.872 110.899 241.916 110.943L250.401 102.457C248.199 100.256 245.362 99 242.159 99V111ZM241.916 110.943C241.96 110.986 241.97 111.004 241.962 110.992C241.953 110.98 241.933 110.947 241.912 110.897C241.89 110.846 241.875 110.795 241.866 110.751C241.858 110.708 241.859 110.688 241.859 110.7H253.859C253.859 107.497 252.603 104.659 250.401 102.457L241.916 110.943ZM241.859 110.7V172.3H253.859V110.7H241.859ZM241.859 172.3C241.859 172.312 241.858 172.292 241.866 172.249C241.875 172.205 241.89 172.154 241.912 172.103C241.933 172.053 241.953 172.02 241.962 172.008C241.97 171.996 241.96 172.014 241.916 172.057L250.401 180.543C252.603 178.341 253.859 175.503 253.859 172.3H241.859ZM241.916 172.057C241.872 172.101 241.855 172.111 241.866 172.103C241.879 172.095 241.911 172.074 241.962 172.053C242.012 172.031 242.063 172.016 242.108 172.008C242.151 171.999 242.171 172 242.159 172V184C245.362 184 248.199 182.744 250.401 180.543L241.916 172.057ZM242.159 172H238.159V184H242.159V172ZM281.715 172.6L276.022 174.495C276.046 174.566 276.071 174.637 276.097 174.707L281.715 172.6ZM261.015 110.4L266.708 108.505C266.698 108.476 266.688 108.447 266.678 108.418L261.015 110.4ZM273.015 106.6L269.379 111.373C269.428 111.41 269.477 111.447 269.527 111.482L273.015 106.6ZM275.715 110.5L269.894 111.955C269.91 112.018 269.927 112.081 269.944 112.144L275.715 110.5ZM291.015 164.2H297.015C297.015 163.644 296.938 163.091 296.785 162.556L291.015 164.2ZM291.215 164.2L285.449 162.539C285.294 163.079 285.215 163.638 285.215 164.2H291.215ZM306.715 110.4L300.955 108.72C300.953 108.726 300.951 108.733 300.949 108.739L306.715 110.4ZM309.415 106.5L305.927 101.618C305.89 101.645 305.852 101.672 305.815 101.7L309.415 106.5ZM321.015 110.4L315.352 108.418C315.342 108.447 315.332 108.476 315.322 108.505L321.015 110.4ZM300.315 172.6L306.007 174.497L306.008 174.495L300.315 172.6ZM297.415 176.5L293.927 171.618C293.89 171.645 293.852 171.672 293.815 171.7L297.415 176.5ZM284.615 176.5L281.015 181.3C281.052 181.328 281.09 181.355 281.127 181.382L284.615 176.5ZM287.408 170.705L266.708 108.505L255.322 112.295L276.022 174.495L287.408 170.705ZM266.678 108.418C266.715 108.523 266.795 108.838 266.736 109.279C266.676 109.724 266.509 110.03 266.417 110.16L256.613 103.24C254.67 105.992 254.258 109.258 255.352 112.382L266.678 108.418ZM266.417 110.16C266.328 110.285 266.095 110.549 265.688 110.759C265.282 110.968 264.944 111 264.815 111V99C261.487 99 258.55 100.496 256.613 103.24L266.417 110.16ZM264.815 111H268.415V99H264.815V111ZM268.415 111C268.691 111 268.961 111.054 269.379 111.373L276.651 101.827C274.269 100.012 271.472 99 268.415 99V111ZM269.527 111.482C269.822 111.693 269.856 111.802 269.894 111.955L281.536 109.045C280.774 105.998 279.008 103.507 276.502 101.718L269.527 111.482ZM269.944 112.144L285.244 165.844L296.785 162.556L281.485 108.856L269.944 112.144ZM285.015 164.2C285.015 165.158 285.258 166.979 286.797 168.518C288.336 170.056 290.157 170.3 291.115 170.3V158.3C292.006 158.3 293.777 158.527 295.282 160.032C296.788 161.538 297.015 163.308 297.015 164.2H285.015ZM291.115 170.3C292.073 170.3 293.894 170.056 295.433 168.518C296.971 166.979 297.215 165.158 297.215 164.2H285.215C285.215 163.309 285.442 161.538 286.947 160.032C288.453 158.527 290.223 158.3 291.115 158.3V170.3ZM296.98 165.861L312.48 112.061L300.949 108.739L285.449 162.539L296.98 165.861ZM312.475 112.08C312.578 111.726 312.72 111.521 313.015 111.3L305.815 101.7C303.443 103.479 301.785 105.874 300.955 108.72L312.475 112.08ZM312.902 111.382C313.32 111.084 313.641 111 314.015 111V99C311.055 99 308.31 99.9158 305.927 101.618L312.902 111.382ZM314.015 111H317.215V99H314.015V111ZM317.215 111C317.086 111 316.748 110.968 316.342 110.759C315.934 110.549 315.702 110.285 315.613 110.16L325.417 103.24C323.48 100.496 320.543 99 317.215 99V111ZM315.613 110.16C315.521 110.03 315.354 109.724 315.294 109.279C315.234 108.838 315.315 108.523 315.352 108.418L326.678 112.382C327.771 109.258 327.359 105.992 325.417 103.24L315.613 110.16ZM315.322 108.505L294.622 170.705L306.008 174.495L326.708 112.295L315.322 108.505ZM294.623 170.703C294.499 171.074 294.318 171.339 293.927 171.618L300.902 181.382C303.312 179.661 305.064 177.326 306.007 174.497L294.623 170.703ZM293.815 171.7C293.564 171.888 293.306 172 292.815 172V184C295.791 184 298.599 183.112 301.015 181.3L293.815 171.7ZM292.815 172H289.215V184H292.815V172ZM289.215 172C288.841 172 288.52 171.916 288.102 171.618L281.127 181.382C283.51 183.084 286.255 184 289.215 184V172ZM288.215 171.7C287.821 171.405 287.542 171.05 287.333 170.493L276.097 174.707C277.088 177.35 278.742 179.595 281.015 181.3L288.215 171.7ZM374.647 114.7L378.759 119.069C378.803 119.028 378.847 118.986 378.89 118.943L374.647 114.7ZM372.747 135.8L368.37 139.904C368.414 139.951 368.459 139.997 368.504 140.043L372.747 135.8ZM374.647 168.4L370.404 172.643C370.447 172.686 370.491 172.728 370.535 172.769L374.647 168.4ZM336.647 172C336.635 172 336.655 171.999 336.698 172.008C336.742 172.016 336.793 172.031 336.844 172.053C336.894 172.074 336.927 172.095 336.939 172.103C336.951 172.111 336.933 172.101 336.89 172.057L328.404 180.543C330.606 182.744 333.444 184 336.647 184V172ZM336.89 172.057C336.846 172.014 336.835 171.996 336.843 172.008C336.852 172.02 336.872 172.053 336.894 172.103C336.915 172.154 336.931 172.205 336.939 172.249C336.948 172.292 336.947 172.312 336.947 172.3H324.947C324.947 175.503 326.202 178.341 328.404 180.543L336.89 172.057ZM336.947 172.3V110.7H324.947V172.3H336.947ZM336.947 110.7C336.947 110.688 336.948 110.708 336.939 110.751C336.931 110.795 336.915 110.846 336.894 110.897C336.872 110.947 336.852 110.98 336.843 110.992C336.835 111.004 336.846 110.986 336.89 110.943L328.404 102.457C326.202 104.659 324.947 107.497 324.947 110.7H336.947ZM336.89 110.943C336.933 110.899 336.951 110.889 336.939 110.897C336.927 110.905 336.894 110.926 336.844 110.947C336.793 110.969 336.742 110.984 336.698 110.992C336.655 111.001 336.635 111 336.647 111V99C333.444 99 330.606 100.256 328.404 102.457L336.89 110.943ZM336.647 111H370.647V99H336.647V111ZM370.647 111C370.659 111 370.639 111.001 370.596 110.992C370.552 110.984 370.501 110.969 370.45 110.947C370.4 110.926 370.367 110.905 370.355 110.897C370.343 110.889 370.361 110.899 370.404 110.943L378.89 102.457C376.688 100.256 373.85 99 370.647 99V111ZM370.404 110.943C370.448 110.986 370.458 111.004 370.45 110.992C370.442 110.98 370.421 110.947 370.4 110.897C370.378 110.846 370.363 110.795 370.355 110.751C370.346 110.708 370.347 110.688 370.347 110.7H382.347C382.347 107.497 381.091 104.659 378.89 102.457L370.404 110.943ZM370.347 110.7C370.347 110.712 370.346 110.692 370.355 110.649C370.363 110.605 370.378 110.554 370.4 110.503C370.421 110.453 370.442 110.42 370.45 110.408C370.458 110.396 370.448 110.414 370.404 110.457L378.89 118.943C381.091 116.741 382.347 113.903 382.347 110.7H370.347ZM370.535 110.331C370.498 110.365 370.484 110.373 370.494 110.366C370.505 110.359 370.531 110.344 370.569 110.329C370.606 110.314 370.639 110.305 370.662 110.301C370.684 110.297 370.681 110.3 370.647 110.3V122.3C373.734 122.3 376.531 121.166 378.759 119.069L370.535 110.331ZM370.647 110.3H345.847V122.3H370.647V110.3ZM345.847 110.3C344.622 110.3 342.601 110.61 340.929 112.282C339.257 113.954 338.947 115.975 338.947 117.2H350.947C350.947 117.825 350.787 119.396 349.415 120.768C348.042 122.14 346.472 122.3 345.847 122.3V110.3ZM338.947 117.2V133.3H350.947V117.2H338.947ZM338.947 133.3C338.947 134.525 339.257 136.546 340.929 138.218C342.601 139.89 344.622 140.2 345.847 140.2V128.2C346.472 128.2 348.042 128.36 349.415 129.732C350.787 131.104 350.947 132.675 350.947 133.3H338.947ZM345.847 140.2H368.947V128.2H345.847V140.2ZM368.947 140.2C369.006 140.2 368.903 140.208 368.719 140.13C368.528 140.049 368.408 139.944 368.37 139.904L377.124 131.696C374.929 129.355 372.048 128.2 368.947 128.2V140.2ZM368.504 140.043C368.542 140.081 368.48 140.027 368.417 139.878C368.388 139.81 368.369 139.744 368.358 139.687C368.347 139.63 368.347 139.599 368.347 139.6H380.347C380.347 136.492 379.145 133.713 376.99 131.557L368.504 140.043ZM368.347 139.6C368.347 139.601 368.347 139.57 368.358 139.513C368.369 139.456 368.388 139.39 368.417 139.322C368.48 139.173 368.542 139.119 368.504 139.157L376.99 147.643C379.145 145.487 380.347 142.708 380.347 139.6H368.347ZM368.504 139.157C368.527 139.135 368.571 139.096 368.636 139.053C368.701 139.009 368.773 138.972 368.844 138.944C368.995 138.884 369.054 138.9 368.947 138.9V150.9C371.924 150.9 374.764 149.868 376.99 147.643L368.504 139.157ZM368.947 138.9H345.847V150.9H368.947V138.9ZM345.847 138.9C344.622 138.9 342.601 139.21 340.929 140.882C339.257 142.554 338.947 144.575 338.947 145.8H350.947C350.947 146.425 350.787 147.996 349.415 149.368C348.042 150.74 346.472 150.9 345.847 150.9V138.9ZM338.947 145.8V165.8H350.947V145.8H338.947ZM338.947 165.8C338.947 167.025 339.257 169.046 340.929 170.718C342.601 172.39 344.622 172.7 345.847 172.7V160.7C346.472 160.7 348.042 160.86 349.415 162.232C350.787 163.604 350.947 165.175 350.947 165.8H338.947ZM345.847 172.7H370.647V160.7H345.847V172.7ZM370.647 172.7C370.659 172.7 370.639 172.701 370.596 172.692C370.552 172.684 370.501 172.669 370.45 172.647C370.4 172.626 370.367 172.605 370.355 172.597C370.343 172.589 370.361 172.599 370.404 172.643L378.89 164.157C376.688 161.956 373.85 160.7 370.647 160.7V172.7ZM370.535 172.769C370.568 172.801 370.493 172.737 370.422 172.573C370.389 172.498 370.369 172.428 370.357 172.37C370.346 172.314 370.347 172.288 370.347 172.3H382.347C382.347 169.084 381.077 166.212 378.759 164.031L370.535 172.769ZM370.347 172.3C370.347 172.312 370.346 172.292 370.355 172.249C370.363 172.205 370.378 172.154 370.4 172.103C370.421 172.053 370.442 172.02 370.45 172.008C370.458 171.996 370.448 172.014 370.404 172.057L378.89 180.543C381.091 178.341 382.347 175.503 382.347 172.3H370.347ZM370.404 172.057C370.361 172.101 370.343 172.111 370.355 172.103C370.367 172.095 370.4 172.074 370.45 172.053C370.501 172.031 370.552 172.016 370.596 172.008C370.639 171.999 370.659 172 370.647 172V184C373.85 184 376.688 182.744 378.89 180.543L370.404 172.057ZM370.647 172H336.647V184H370.647V172Z" fill="#570000"/>
<path d="M17.2 84.4L4.40001 22.6C4.06668 21.1334 4.36668 19.8334 5.30001 18.7C6.30001 17.5667 7.53334 17 9.00001 17H11.9C13.5667 17 15 17.5334 16.2 18.6C17.4 19.6667 18.1333 21 18.4 22.6L26.7 75.2C26.7 75.2667 26.7333 75.3 26.8 75.3C26.9333 75.3 27 75.2667 27 75.2L35 22.6C35.2667 21 36 19.6667 37.2 18.6C38.4 17.5334 39.8333 17 41.5 17H47.5C49.1667 17 50.6 17.5334 51.8 18.6C53 19.6667 53.7333 21 54 22.6L62.1 75.2C62.1 75.2667 62.1333 75.3 62.2 75.3C62.2667 75.3 62.3 75.2667 62.3 75.2L70.6 22.6C70.8667 21 71.6 19.6667 72.8 18.6C74 17.5334 75.4333 17 77.1 17H79.6C81.0667 17 82.2667 17.5667 83.2 18.7C84.1333 19.8334 84.4667 21.1334 84.2 22.6L71.4 84.4C71.0667 86 70.2667 87.3334 69 88.4C67.7333 89.4667 66.2667 90 64.6 90H59.3C57.6333 90 56.1667 89.4667 54.9 88.4C53.7 87.3334 52.9667 86 52.7 84.4L44.4 31.8C44.4 31.7334 44.3667 31.7 44.3 31.7C44.2333 31.7 44.2 31.7334 44.2 31.8L35.9 84.4C35.6333 86 34.8667 87.3334 33.6 88.4C32.4 89.4667 30.9667 90 29.3 90H24C22.3333 90 20.8667 89.4667 19.6 88.4C18.3333 87.3334 17.5333 86 17.2 84.4ZM111.793 90C110.26 90 108.926 89.4334 107.793 88.3C106.726 87.1667 106.193 85.8334 106.193 84.3V22.7C106.193 21.1667 106.726 19.8334 107.793 18.7C108.926 17.5667 110.26 17 111.793 17H114.493C116.026 17 117.36 17.5667 118.493 18.7C119.626 19.8334 120.193 21.1667 120.193 22.7V45.4C120.193 45.9334 120.46 46.2 120.993 46.2H145.993C146.526 46.2 146.793 45.9334 146.793 45.4V22.7C146.793 21.1667 147.36 19.8334 148.493 18.7C149.626 17.5667 150.96 17 152.493 17H155.193C156.726 17 158.026 17.5667 159.093 18.7C160.226 19.8334 160.793 21.1667 160.793 22.7V84.3C160.793 85.8334 160.226 87.1667 159.093 88.3C158.026 89.4334 156.726 90 155.193 90H152.493C150.96 90 149.626 89.4334 148.493 88.3C147.36 87.1667 146.793 85.8334 146.793 84.3V57.8C146.793 57.2 146.526 56.9 145.993 56.9H120.993C120.46 56.9 120.193 57.2 120.193 57.8V84.3C120.193 85.8334 119.626 87.1667 118.493 88.3C117.36 89.4334 116.026 90 114.493 90H111.793ZM192.803 90C191.27 90 189.936 89.4334 188.803 88.3C187.67 87.1667 187.103 85.8334 187.103 84.3V22.7C187.103 21.1667 187.67 19.8334 188.803 18.7C189.936 17.5667 191.27 17 192.803 17H226.803C228.336 17 229.67 17.5667 230.803 18.7C231.936 19.8334 232.503 21.1667 232.503 22.7C232.503 24.2334 231.936 25.5667 230.803 26.7C229.67 27.7667 228.336 28.3 226.803 28.3H202.003C201.403 28.3 201.103 28.6 201.103 29.2V45.3C201.103 45.9 201.403 46.2 202.003 46.2H225.103C226.636 46.2 227.903 46.7334 228.903 47.8C229.97 48.8667 230.503 50.1334 230.503 51.6C230.503 53.0667 229.97 54.3334 228.903 55.4C227.903 56.4 226.636 56.9 225.103 56.9H202.003C201.403 56.9 201.103 57.2 201.103 57.8V77.8C201.103 78.4 201.403 78.7 202.003 78.7H226.803C228.336 78.7 229.67 79.2667 230.803 80.4C231.936 81.4667 232.503 82.7667 232.503 84.3C232.503 85.8334 231.936 87.1667 230.803 88.3C229.67 89.4334 228.336 90 226.803 90H192.803ZM271.559 28.4V50.1C271.559 50.6334 271.859 50.9 272.459 50.9H277.459C289.326 50.9 295.259 46.6667 295.259 38.2C295.259 30.6667 289.759 26.9 278.759 26.9C276.759 26.9 274.659 27.0667 272.459 27.4C271.859 27.5334 271.559 27.8667 271.559 28.4ZM263.459 90C261.926 90 260.593 89.4334 259.459 88.3C258.326 87.1667 257.759 85.8334 257.759 84.3V23.2C257.759 21.6 258.293 20.1667 259.359 18.9C260.426 17.6334 261.759 16.9334 263.359 16.8C269.026 16.2667 274.493 16 279.759 16C289.559 16 296.893 17.8334 301.759 21.5C306.626 25.1 309.059 30.2 309.059 36.8C309.059 41.5334 307.759 45.7 305.159 49.3C302.626 52.9 299.193 55.4334 294.859 56.9C294.793 56.9 294.759 56.9334 294.759 57C294.759 57.1334 294.793 57.2 294.859 57.2C298.059 59.2 300.793 63.1334 303.059 69L309.059 84.7C309.526 85.9667 309.359 87.1667 308.559 88.3C307.826 89.4334 306.793 90 305.459 90H302.359C300.626 90 299.059 89.5334 297.659 88.6C296.259 87.6 295.259 86.3 294.659 84.7L289.059 69.3C287.859 66.1 286.493 64 284.959 63C283.426 62 280.793 61.5 277.059 61.5H272.459C271.859 61.5 271.559 61.8 271.559 62.4V84.3C271.559 85.8334 270.993 87.1667 269.859 88.3C268.793 89.4334 267.493 90 265.959 90H263.459ZM337.338 90C335.805 90 334.472 89.4334 333.338 88.3C332.205 87.1667 331.638 85.8334 331.638 84.3V22.7C331.638 21.1667 332.205 19.8334 333.338 18.7C334.472 17.5667 335.805 17 337.338 17H371.338C372.872 17 374.205 17.5667 375.338 18.7C376.472 19.8334 377.038 21.1667 377.038 22.7C377.038 24.2334 376.472 25.5667 375.338 26.7C374.205 27.7667 372.872 28.3 371.338 28.3H346.538C345.938 28.3 345.638 28.6 345.638 29.2V45.3C345.638 45.9 345.938 46.2 346.538 46.2H369.638C371.172 46.2 372.438 46.7334 373.438 47.8C374.505 48.8667 375.038 50.1334 375.038 51.6C375.038 53.0667 374.505 54.3334 373.438 55.4C372.438 56.4 371.172 56.9 369.638 56.9H346.538C345.938 56.9 345.638 57.2 345.638 57.8V77.8C345.638 78.4 345.938 78.7 346.538 78.7H371.338C372.872 78.7 374.205 79.2667 375.338 80.4C376.472 81.4667 377.038 82.7667 377.038 84.3C377.038 85.8334 376.472 87.1667 375.338 88.3C374.205 89.4334 372.872 90 371.338 90H337.338ZM11.1 116.6C9.56668 116.6 8.23334 116.067 7.10001 115C5.96668 113.867 5.40001 112.533 5.40001 111V110.7C5.40001 109.167 5.96668 107.833 7.10001 106.7C8.23334 105.567 9.56668 105 11.1 105H53.7C55.2333 105 56.5667 105.567 57.7 106.7C58.8333 107.833 59.4 109.167 59.4 110.7V111C59.4 112.533 58.8333 113.867 57.7 115C56.5667 116.067 55.2333 116.6 53.7 116.6H40.3C39.7667 116.6 39.5 116.9 39.5 117.5V172.3C39.5 173.833 38.9333 175.167 37.8 176.3C36.6667 177.433 35.3333 178 33.8 178H31C29.4667 178 28.1333 177.433 27 176.3C25.8667 175.167 25.3 173.833 25.3 172.3V117.5C25.3 116.9 25.0333 116.6 24.5 116.6H11.1ZM116.54 141.5C116.54 124.167 110.207 115.5 97.5398 115.5C84.8732 115.5 78.5398 124.167 78.5398 141.5C78.5398 158.833 84.8732 167.5 97.5398 167.5C110.207 167.5 116.54 158.833 116.54 141.5ZM121.84 169.1C115.907 175.7 107.807 179 97.5398 179C87.2732 179 79.1398 175.7 73.1398 169.1C67.2065 162.5 64.2398 153.3 64.2398 141.5C64.2398 129.7 67.2065 120.5 73.1398 113.9C79.1398 107.3 87.2732 104 97.5398 104C107.807 104 115.907 107.3 121.84 113.9C127.84 120.5 130.84 129.7 130.84 141.5C130.84 153.3 127.84 162.5 121.84 169.1Z" fill="#7B0000"/>
<path d="M176.195 178C174.662 178 173.329 177.433 172.195 176.3C171.129 175.167 170.595 173.833 170.595 172.3V110.7C170.595 109.167 171.129 107.833 172.195 106.7C173.329 105.567 174.662 105 176.195 105H179.395C180.929 105 182.262 105.567 183.395 106.7C184.529 107.833 185.095 109.167 185.095 110.7V165.5C185.095 166.1 185.362 166.4 185.895 166.4H211.595C213.129 166.4 214.429 166.967 215.495 168.1C216.629 169.167 217.195 170.467 217.195 172V172.3C217.195 173.833 216.629 175.167 215.495 176.3C214.429 177.433 213.129 178 211.595 178H176.195ZM238.159 178C236.625 178 235.292 177.433 234.159 176.3C233.025 175.167 232.459 173.833 232.459 172.3V110.7C232.459 109.167 233.025 107.833 234.159 106.7C235.292 105.567 236.625 105 238.159 105H242.159C243.692 105 245.025 105.567 246.159 106.7C247.292 107.833 247.859 109.167 247.859 110.7V172.3C247.859 173.833 247.292 175.167 246.159 176.3C245.025 177.433 243.692 178 242.159 178H238.159ZM281.715 172.6L261.015 110.4C260.548 109.067 260.715 107.833 261.515 106.7C262.315 105.567 263.415 105 264.815 105H268.415C270.082 105 271.615 105.533 273.015 106.6C274.415 107.6 275.315 108.9 275.715 110.5L291.015 164.2C291.015 164.267 291.048 164.3 291.115 164.3C291.182 164.3 291.215 164.267 291.215 164.2L306.715 110.4C307.182 108.8 308.082 107.5 309.415 106.5C310.815 105.5 312.348 105 314.015 105H317.215C318.615 105 319.715 105.567 320.515 106.7C321.315 107.833 321.482 109.067 321.015 110.4L300.315 172.6C299.782 174.2 298.815 175.5 297.415 176.5C296.082 177.5 294.548 178 292.815 178H289.215C287.548 178 286.015 177.5 284.615 176.5C283.282 175.5 282.315 174.2 281.715 172.6ZM336.647 178C335.114 178 333.78 177.433 332.647 176.3C331.514 175.167 330.947 173.833 330.947 172.3V110.7C330.947 109.167 331.514 107.833 332.647 106.7C333.78 105.567 335.114 105 336.647 105H370.647C372.18 105 373.514 105.567 374.647 106.7C375.78 107.833 376.347 109.167 376.347 110.7C376.347 112.233 375.78 113.567 374.647 114.7C373.514 115.767 372.18 116.3 370.647 116.3H345.847C345.247 116.3 344.947 116.6 344.947 117.2V133.3C344.947 133.9 345.247 134.2 345.847 134.2H368.947C370.48 134.2 371.747 134.733 372.747 135.8C373.814 136.867 374.347 138.133 374.347 139.6C374.347 141.067 373.814 142.333 372.747 143.4C371.747 144.4 370.48 144.9 368.947 144.9H345.847C345.247 144.9 344.947 145.2 344.947 145.8V165.8C344.947 166.4 345.247 166.7 345.847 166.7H370.647C372.18 166.7 373.514 167.267 374.647 168.4C375.78 169.467 376.347 170.767 376.347 172.3C376.347 173.833 375.78 175.167 374.647 176.3C373.514 177.433 372.18 178 370.647 178H336.647Z" fill="#FF2222"/>
</g>
<defs>
<clipPath id="clip0_1_2">
<rect width="531" height="192" fill="white"/>
</clipPath>
</defs>
</svg>
