<svg width="156" height="180" viewBox="0 0 156 180" fill="none" xmlns="http://www.w3.org/2000/svg">
<path d="M90.7219 160.262C90.7219 167.794 84.2065 173.9 76.1693 173.9C68.1322 173.9 61.6168 167.794 61.6168 160.262C61.6168 152.73 68.1322 146.624 76.1693 146.624C84.2065 146.624 90.7219 152.73 90.7219 160.262Z" fill="#FF2222"/>
<path fill-rule="evenodd" clip-rule="evenodd" d="M149.5 74C149.5 74 82.8734 6 76.5001 6C74.2699 6 63.1921 15.6489 49.732 28.1938V24.3862C49.732 22.2909 47.8773 20.5922 45.5893 20.5922C43.3014 20.5922 41.4467 22.2909 41.4467 24.3862V35.9907C17.9764 58.264 6 74 6 74C6 74 11.4902 72.2494 35.2352 63.1365C35.8148 56.2053 39.5897 49.3806 44.6435 43.2568C46.233 41.3306 47.9491 39.4738 49.732 37.7049C60.6489 26.8735 74.0729 19.3351 76.3141 19.3351C80.1204 19.3351 116.564 36.1629 118.43 63.3929C141.882 72.4828 149.5 74 149.5 74Z" fill="#7B0000"/>
<path fill-rule="evenodd" clip-rule="evenodd" d="M99.232 67.5459C99.232 79.2236 77.6162 112.032 77.6162 112.032L69.6735 124.966C69.6735 124.966 64.5946 132.271 71.8867 136.703C79.1788 141.134 84.6479 133.89 84.6479 133.89C84.6479 133.89 118.504 94.0672 118.504 65.5636C118.504 64.8329 118.479 64.1093 118.43 63.3929C116.564 36.1629 80.1204 19.3351 76.3141 19.3351C74.0729 19.3351 60.6489 26.8735 49.732 37.7049C47.9491 39.4738 46.233 41.3306 44.6435 43.2568C39.5897 49.3806 35.8148 56.2053 35.2352 63.1365C35.1677 63.9444 35.1436 64.7537 35.1659 65.5636C35.4095 74.4064 36.8037 79.8382 41.864 87.3605C44.281 90.9534 49.5079 92.8378 53.9169 90.9534C58.3043 89.0782 59.386 84.4862 57.6194 80.7156C55.3122 75.7912 53.3961 70.7475 53.3961 67.5459C53.3961 63.4423 54.6631 59.6117 56.856 56.369C60.9034 50.3839 68.1046 46.4015 76.3141 46.4015C84.4771 46.4015 91.6433 50.339 95.7032 56.2677C97.9384 59.5318 99.232 63.3995 99.232 67.5459ZM79.4767 27.821H74.1849C71.2623 27.821 68.8931 29.992 68.8931 32.6701V36.9131C68.8931 39.5912 71.2623 41.7622 74.1849 41.7622H79.4767C82.3993 41.7622 84.7686 39.5912 84.7686 36.9131V32.6701C84.7686 29.992 82.3993 27.821 79.4767 27.821Z" fill="#FF2222"/>
<path d="M6 74C6.91139 76.8582 6.91177 76.8581 6.91216 76.858L6.91306 76.8577L6.91522 76.857L6.92105 76.8551L6.93883 76.8494L6.99999 76.8295C7.05252 76.8123 7.12922 76.787 7.23316 76.7523C7.44095 76.6829 7.75831 76.5754 8.20995 76.4191C9.11295 76.1066 10.5559 75.5978 12.7375 74.8053C16.578 73.4102 22.7156 71.1333 32.2372 67.4967C32.4232 71.2662 32.8718 74.5779 33.833 77.8119C34.9527 81.5795 36.7233 85.0935 39.3748 89.035C42.5383 93.7375 49.27 96.202 55.096 93.712C61.3137 91.0545 62.6917 84.4707 60.336 79.4428C59.2088 77.0369 58.2034 74.6566 57.4854 72.5264C56.7477 70.3379 56.3961 68.6495 56.3961 67.5459C56.3961 64.0737 57.4652 60.8235 59.3411 58.0495C62.8154 52.912 69.0733 49.4015 76.3141 49.4015C83.5137 49.4015 89.7421 52.8723 93.228 57.9627C95.1406 60.7558 96.232 64.0377 96.232 67.5459C96.232 69.7892 95.1234 73.5241 93.0981 78.2393C91.1299 82.8215 88.4838 87.9156 85.8058 92.7035C83.1333 97.4818 80.4568 101.906 78.4462 105.139C77.4417 106.754 76.6053 108.068 76.0211 108.977C75.729 109.432 75.5002 109.785 75.3449 110.023C75.2673 110.143 75.2082 110.233 75.1688 110.293L75.1246 110.361L75.114 110.377L75.1115 110.38L75.1111 110.381C75.0935 110.408 75.0764 110.435 75.0598 110.462L67.1499 123.343C67.1357 123.364 67.1195 123.389 67.1015 123.416C67.0476 123.499 66.9771 123.611 66.8948 123.749C66.7306 124.023 66.5159 124.407 66.2896 124.878C65.8444 125.805 65.3161 127.15 65.079 128.726C64.84 130.314 64.8853 132.224 65.6985 134.161C66.5234 136.125 68.0373 137.874 70.3287 139.267C75.1087 142.172 79.4744 141.227 82.451 139.585C83.8899 138.791 85.0144 137.84 85.7718 137.102C86.1549 136.73 86.4559 136.4 86.668 136.155C86.7744 136.032 86.8592 135.929 86.9217 135.851C86.9434 135.824 86.9624 135.8 86.9787 135.78L87.0416 135.705C87.1094 135.624 87.2082 135.506 87.3361 135.352C87.5919 135.044 87.9638 134.593 88.4352 134.01C89.3778 132.844 90.7194 131.153 92.3269 129.037C95.5395 124.807 99.8266 118.863 104.119 112.008C108.406 105.16 112.73 97.3531 115.99 89.4026C118.929 82.2333 121.065 74.7994 121.444 67.7634C130.97 71.3836 137.544 73.6146 141.862 74.9679C144.319 75.7378 146.049 76.2247 147.18 76.5222C147.746 76.671 148.162 76.7726 148.446 76.8387C148.587 76.8718 148.696 76.8959 148.773 76.9127C148.812 76.9211 148.843 76.9276 148.866 76.9325L148.896 76.9385L148.906 76.9407L148.91 76.9415L148.912 76.9419C148.913 76.9421 148.914 76.9422 149.5 74M6 74C3.61276 72.1831 3.61304 72.1827 3.61336 72.1823L3.61424 72.1812L3.61682 72.1778L3.62527 72.1667L3.65535 72.1275C3.68125 72.0937 3.71885 72.0449 3.76815 71.9812C3.86674 71.8539 4.01208 71.6673 4.20407 71.4236C4.58803 70.9363 5.15858 70.2209 5.91476 69.2952C7.42711 67.444 9.68218 64.7519 12.6725 61.3629C18.494 54.7654 27.1037 45.5247 38.4467 34.7041V24.3862C38.4467 20.3912 41.8983 17.5922 45.5893 17.5922C48.4208 17.5922 51.1115 19.2394 52.211 21.81C57.1795 17.2429 61.7009 13.2059 65.3958 10.097C67.7844 8.08732 69.8752 6.42509 71.5419 5.25103C72.3705 4.66738 73.1539 4.16187 73.8539 3.78989C74.4034 3.49793 75.4063 3 76.5001 3C77.2805 3 77.9675 3.2381 78.4109 3.42038C78.9072 3.6244 79.4125 3.8933 79.9028 4.18469C80.8858 4.76884 82.0336 5.57889 83.2889 6.5387C85.811 8.46719 89.0028 11.1826 92.5927 14.3868C99.7849 20.8061 108.748 29.3425 117.483 37.851C126.225 46.3655 134.764 54.8772 141.116 61.2585C144.293 64.4497 146.923 67.1092 148.76 68.9713C149.679 69.9023 150.399 70.6341 150.89 71.1334C151.135 71.383 151.323 71.5745 151.45 71.7037L151.594 71.8503L151.63 71.8876L151.64 71.8971L151.642 71.8996C151.643 71.9001 151.643 71.9004 149.5 74M6 74L6.91139 76.8582C5.66431 77.2559 4.30337 76.7991 3.54874 75.7295C2.79411 74.66 2.82002 73.2247 3.61276 72.1831L6 74ZM149.5 74L151.643 71.9004C152.564 72.8404 152.765 74.2707 152.138 75.428C151.512 76.5852 150.205 77.1992 148.914 76.9422L149.5 74ZM76.1693 176.9C85.677 176.9 93.7219 169.632 93.7219 160.262C93.7219 150.893 85.677 143.624 76.1693 143.624C66.6617 143.624 58.6168 150.893 58.6168 160.262C58.6168 169.632 66.6617 176.9 76.1693 176.9ZM74.1849 30.821H79.4767C80.9946 30.821 81.7686 31.8902 81.7686 32.6701V36.9131C81.7686 37.693 80.9946 38.7622 79.4767 38.7622H74.1849C72.6671 38.7622 71.8931 37.693 71.8931 36.9131V32.6701C71.8931 31.8902 72.6671 30.821 74.1849 30.821Z" stroke="#E8E8E8" stroke-width="6" stroke-linejoin="round"/>
</svg>
